<svg width="293" height="213" viewBox="0 0 293 213" fill="none" xmlns="http://www.w3.org/2000/svg">
<path fill-rule="evenodd" clip-rule="evenodd" d="M103.588 161.186C102.467 163.045 103.192 166.056 103.488 168.047C103.219 163.163 106.58 157.664 108.39 153.314C110.151 149.081 111.62 144.713 112.665 140.24C112.689 140.143 114.896 130.16 111.651 132.067C102.629 137.314 108.45 153.841 103.588 161.186ZM99.703 85.538C102.441 89.1401 116.254 106.09 121.26 100.494C125.244 96.0411 117.05 85.368 113.617 82.9763C107.9 78.9985 101.77 75.749 96.289 71.3884C96.9028 76.4873 96.4062 81.2318 99.703 85.538ZM245.358 88.4115C249.771 87.7535 254.197 87.0681 258.551 86.0885C253.497 86.834 248.501 87.4416 243.544 88.7077L245.359 88.4109L245.358 88.4115ZM11.5469 169.667C10.622 167.331 15.7716 163.38 16.9835 162.093C20.3057 158.564 23.7237 154.639 24.3137 149.969C25.3982 146.304 16.8181 148.209 14.2257 147.77C12.4081 147.462 7.95067 146.427 7.01993 144.551C5.0266 140.533 11.4273 138.363 14.2204 137.049C18.3117 135.126 20.5165 134.633 16.1658 132.815C11.4886 130.863 1.5256 131.103 0.407787 124.251C-0.543495 118.416 9.24033 115.993 13.124 115.099C20.4414 113.409 26.9631 114.469 33.833 117.242C35.4351 117.887 45.1399 121.315 44.4918 118.913C42.4233 113.664 35.3985 112.707 32.6613 107.911C31.1059 105.185 31.033 102.651 29.0574 99.9657C27.1072 97.3137 23.0962 93.4303 24.9398 89.6632C26.1108 87.2727 28.8902 86.8775 30.9954 87.6109C36.1161 89.0183 39.5579 92.2644 44.0731 94.8249C47.3777 96.6973 51.1083 95.996 54.0005 98.7822C58.3674 103.099 62.752 107.957 67.5789 111.98C69.0917 113.241 76.1669 118.665 76.6161 114.502C76.8692 112.158 69.6244 108.141 68.4453 107.275C65.6287 105.206 62.6135 103.487 61.0859 100.15C60.2101 98.2375 60.6516 96.1836 59.9561 94.6958C57.8984 90.2988 51.9531 87.0053 49.3129 82.8192C46.9442 79.0625 41.4341 69.5629 43.0302 65.0191C45.215 58.7976 51.5479 65.3608 54.6534 67.6835C58.0907 70.2563 61.0778 72.8536 64.8571 74.6436C68.1921 76.2261 70.624 77.9673 72.9814 80.998C77.3372 86.5971 80.2395 92.8725 83.7396 98.7664C83.7233 98.7491 83.7082 98.7307 83.6942 98.7114C85.7918 102.098 88.776 105.648 92.3776 107.574C98.4155 110.801 96.6224 106.989 93.6725 102.831C89.2264 96.5598 83.8054 90.9828 79.3409 84.7451C77.7507 82.5229 76.2403 80.0922 76.0094 77.2794C75.8547 75.3925 77.0563 73.8797 77.0968 72.5097C77.2434 67.7458 62.6531 41.2765 72.6187 39.6592C77.9997 38.7856 81.3074 50.7914 83.0774 53.9556C85.9041 59.0094 87.3044 63.4276 92.5698 66.1923C92.0782 63.9335 93.9697 62.3429 93.6824 60.3742C93.3395 58.0333 90.8882 55.9871 89.5523 54.1972C85.8794 49.2764 82.4948 44.0384 80.172 38.3608C73.0861 21.035 91.5333 34.1329 97.3752 38.8822C98.4954 39.794 99.9387 40.9372 101.226 41.956C104.604 44.6218 105.706 44.1183 109.264 45.5083C115.316 47.8749 118.752 58.6974 120.718 64.4033C121.327 66.1638 131.69 93.8941 135.674 86.77C137.684 83.1777 131.154 71.2688 129.043 67.793C125.797 62.4487 117.341 55.1036 117.997 48.3709C118.203 46.2559 119.825 45.3667 120.123 43.4699C120.822 39.0414 116.649 33.2938 115.557 29.1475C113.334 20.7091 117.912 14.6548 123.971 24.1929C126.368 27.9681 128.145 30.1876 131.244 33.4664C134.779 37.2072 134.698 42.3544 137.383 46.3296C139.602 49.6148 139.299 46.3614 142.891 48.6599C145.874 50.5697 146.412 57.2722 146.791 60.5014C147.318 64.9862 146.969 83.5955 153.347 83.6709C159.16 83.7394 157.42 71.7436 156.714 68.394C154.949 60.0151 149.508 53.8784 144.867 47.0121C142.605 43.6654 139.798 39.7067 138.695 35.764C137.73 32.3081 138.863 29.6924 139.278 26.3603C139.761 22.481 140.651 4.65047 148.921 10.3775C154.478 14.2253 152.504 23.9839 157.448 28.2669C157.979 23.6671 155.115 11.6919 161.553 9.63702C167.769 7.65384 170.931 20.7347 172.486 25.0689C173.439 27.7278 175.575 43.3409 178.837 45.0246C182.243 46.7818 183.319 42.266 184.185 39.8012C185.668 35.5866 197.325 -3.11148 204.114 1.098C209.38 4.36049 199.898 16.2905 201.931 19.7544C202.677 21.0276 204.013 20.0037 205.34 20.466C210.201 22.1617 211.086 24.6302 208.862 29.4836C221.818 31.2742 207.813 42.3958 203.3 46.2503C200.226 48.8757 186.837 59.864 193.282 64.9755C195.449 66.6942 201.503 64.9316 204.209 65.6197C209.43 66.9486 210.228 71.8366 206.18 75.2495C203.397 77.5989 199.191 78.7431 195.645 79.2108C193.609 79.4817 187.89 78.7076 186.497 80.341C194.142 84.6082 187.644 86.7112 182.032 88.8156C177.835 90.39 166.828 93.9856 166.81 99.9966C173.72 99.3601 180.4 96.8603 187.231 95.7414C194.711 94.5198 201.96 92.9322 209.544 90.907C223.925 87.065 239.127 83.6788 253.805 81.4938C260.984 80.4247 268.127 78.8943 275.229 77.3978C277.79 76.8562 290.895 71.7013 291.947 76.8387C293.368 83.7878 273.225 82.5056 269.521 84.681C242.979 89.749 216.723 96.3485 190.124 100.747C192.494 101.318 197.759 105.331 195.866 108.314C197.939 108.571 201.723 107.907 203.317 109.52C206.842 113.094 202.077 112.565 201.394 114.28C200.229 117.21 206.36 117.858 208.622 118.523C219.163 121.62 229.443 127.101 239.232 132.073C244.602 134.802 256.359 147.619 245.876 151.36C240.644 153.228 232.756 149.085 228.327 146.787C225.532 145.338 218.749 139.665 215.296 140.164C215.1 144.247 220.286 152.345 221.752 155.907C224.856 163.437 226.231 169.235 222.373 176.86C213.206 194.974 205.902 162.175 203.333 163.498C201.526 164.429 204.096 179.72 204.326 181.677C204.834 186.015 205.002 198.414 198.365 199.012C192.796 199.513 190.496 188.468 189.237 184.85C188.181 181.816 186.079 178.776 185.274 175.283C184.612 172.41 185.073 169.356 184.484 166.55C183.872 163.632 181.444 162.051 180.712 158.767C179.886 155.082 179.931 150.76 179.447 146.953C178.638 140.591 177.883 131.82 172.039 127.682C167.386 138.378 174.201 151.58 176.478 162.102C177.616 167.364 179.289 173.756 175.305 178.052C173.704 179.778 174.571 177.431 172.822 179.974C172.43 180.544 172.302 181.555 172.096 182.21C170.627 186.916 169.793 191.762 168.449 196.494C167.616 199.43 165.77 209.338 161.982 210.175C155.113 211.693 154.524 187.289 153.919 182.68C153.464 179.194 153.564 175.383 152.958 171.988C152.403 168.873 150.442 166.78 150.776 163.229C151.208 158.63 153.098 154.104 154.042 149.602C155.312 143.546 155.284 137.865 154.541 131.762C154.233 129.234 153.853 123.315 150.897 122.801C146.146 121.979 147.195 131.53 147.15 134.034C147.017 141.449 148.965 149.612 146.977 157.705C144.923 166.078 149.741 173.845 148.997 182.232C148.728 185.262 148.049 186.656 146.117 188.877C143.972 191.352 142.873 192.476 141.776 196.223C140.782 199.619 136.987 216.596 130.991 211.595C129.045 209.973 130.003 206.324 130.059 204.22C130.18 199.584 130.042 194.932 130.277 190.3C130.425 187.359 131.299 184.026 130.558 181.109C129.855 178.342 128.322 176.912 128.676 173.738C129.15 169.464 132.395 164.531 132.087 160.36C131.795 156.383 130.298 152.491 130.397 148.194C130.478 144.775 133.698 127.032 131.059 126.012C125.695 123.935 125.344 145.85 125.283 147.518C124.896 158.147 126.058 169.481 125.29 180.174C125.031 183.767 123.243 185.619 122.107 188.4C120.597 192.093 120.831 197.021 119.599 200.949C118.617 204.08 116.047 212.268 112.093 208.04C109.234 204.987 110.143 196.645 109.676 192.658C109.151 188.15 108.304 183.742 108.295 179.191C108.292 178.212 108.692 176.293 108.412 175.41C107.629 172.968 104.541 172.457 103.728 169.595C104.413 172.5 104.256 174.875 102.794 177.407C102.414 178.069 100.963 178.919 100.373 179.684C98.5914 181.99 97.6928 185.413 96.5023 188.072C94.8263 191.805 83.9007 209.155 83.0929 196.42C82.7478 190.977 83.327 185.426 84.1123 180.055C84.7282 175.834 86.3366 170.779 85.6922 166.535C85.023 162.136 84.0941 160.853 86.0032 156.16C87.9655 151.336 91.7923 145.155 90.6572 139.783C88.3422 128.838 78.7381 155.073 77.8865 157.963C76.1659 163.801 73.9253 169.888 69.7095 174.406C65.0099 179.446 59.4322 182.625 55.5554 188.554C53.828 191.198 48.8483 200.264 44.5811 197.536C40.3788 194.85 45.9748 184.726 47.0066 181.772C48.0729 178.721 49.7191 175.509 50.4705 172.415C51.151 169.606 50.691 166.884 51.1671 164.037C52.5136 155.963 59.0521 152.286 62.6216 145.55C64.5059 141.993 64.121 139.541 59.5147 141.702C57.0268 142.866 55.0499 145.929 53.0443 147.849C50.0284 150.737 46.777 153.415 43.6367 156.171C39.397 159.888 15.9911 180.998 11.5469 169.667Z" fill="#89B99A"/>
</svg>
