<svg width="140" height="144" viewBox="0 0 140 144" fill="none" xmlns="http://www.w3.org/2000/svg">
<path d="M131.849 47.9963L125.686 25.2072L100.332 32.1035L98.1148 17.7316L93.435 27.0403C92.9965 27.0439 92.558 27.0303 92.1205 26.9993L78.113 0L57.2733 10.8873L70.4135 14.0015L55.551 21.7655L52.5697 21.2787C51.3498 20.3571 49.8941 19.6053 48.2283 19.0437L32.0323 13.579L25.9748 5.01169L13.2618 43.1839L0 48.5588L8.99648 54.0754L17.1137 74.2285L14.4618 84.4664L29.0401 78.5579L15.5668 89.2092L25.7476 91.9839L39.1435 109.059L39.2661 113.507C39.1568 113.659 39.0427 113.798 38.9424 113.954C37.3755 116.251 36.359 118.653 35.9293 121.104C35.4969 123.549 35.5786 125.979 36.1622 128.321C36.7396 130.621 37.7766 132.809 39.2456 134.826C40.6795 136.794 42.5111 138.551 44.6839 140.052C47.2008 141.79 49.7045 142.951 52.1311 143.506C54.5967 144.076 56.9667 144.151 59.1705 143.739C60.2358 143.542 61.2789 143.239 62.2843 142.834C63.3199 142.415 64.3075 141.885 65.2299 141.253C66.9811 140.05 68.4959 138.532 69.6982 136.777C71.8568 133.611 72.9503 130.433 72.9347 127.338C72.9336 126.886 72.9114 126.434 72.8681 125.983L76.2186 127.297L74.0063 130.541L84.1525 130.137L101.753 129.431L95.2994 121.415L95.1203 116.919L95.4776 116.905L103.132 119.78L102.764 110.781L106.208 114.341L106.753 115.715L104.12 125.666L133.655 113.866C134.228 113.78 134.788 113.628 135.326 113.412C137.242 112.636 138.666 111.198 139.439 109.26C140.182 107.375 140.189 105.405 139.449 103.566C139.078 102.643 138.531 101.801 137.839 101.088C137.147 100.384 136.325 99.8224 135.419 99.4347C134.542 99.0658 133.607 98.858 132.657 98.8211C131.522 98.7821 130.395 99.0223 129.369 99.4867L127.891 95.7599C128.484 95.6762 129.065 95.5218 129.622 95.2998C131.369 94.5918 132.691 93.3332 133.467 91.8075L134.262 88.6161C134.272 87.6166 134.083 86.6252 133.707 85.6998C132.555 82.8392 129.893 81.1305 127.013 81.1239L128.051 64.6876L133.305 63.2583L130.497 61.0094C130.692 60.6657 130.882 60.3167 131.071 59.9386C131.951 58.1918 132.4 56.1579 132.395 53.8904L132.401 53.8876C132.402 52.8876 132.204 51.8975 131.818 50.9755C131.44 50.0875 130.897 49.2796 130.218 48.5946C129.527 47.906 128.714 47.3521 127.821 46.9612C126.88 46.5488 125.846 46.3386 124.767 46.3319C123.954 46.3271 123.145 46.45 122.37 46.6961L120.666 40.3924L131.849 47.9967V47.9963Z" fill="black"/>
<path d="M66.4232 121.545C68.0286 123.432 68.8346 125.553 68.8446 127.908C68.8541 130.26 67.9853 132.717 66.2374 135.274C65.2933 136.659 64.0995 137.854 62.7177 138.798C61.3228 139.755 59.7635 140.395 58.0422 140.716C56.3213 141.037 54.4659 140.969 52.4756 140.512C50.489 140.055 48.4193 139.086 46.2769 137.607C44.4343 136.338 42.9169 134.881 41.7169 133.236C40.5211 131.593 39.688 129.847 39.2247 127.996C38.7594 126.15 38.7009 124.255 39.0422 122.313C39.3839 120.372 40.1946 118.463 41.4754 116.588C41.8903 115.979 42.3219 115.439 42.7743 114.969C43.2005 114.522 43.6431 114.092 44.1012 113.678C44.5332 113.287 44.93 112.929 45.285 112.595C45.6415 112.264 45.9314 111.934 46.1581 111.604C46.3467 111.326 46.4926 110.98 46.5905 110.56C46.6903 110.144 46.6932 109.811 46.6048 109.563L56.5584 116.425C55.6816 116.08 54.6997 115.815 53.62 115.63C52.5751 115.447 51.5123 115.389 50.4538 115.456C49.4472 115.522 48.4586 115.756 47.5292 116.149C46.6119 116.544 45.8853 117.133 45.3516 117.915C44.8368 118.668 44.5432 119.55 44.5042 120.461C44.4591 121.399 44.6696 122.391 45.1406 123.441C45.6115 124.491 46.3563 125.576 47.379 126.689C48.3993 127.803 49.7186 128.915 51.3359 130.03C52.6966 130.969 54.0406 131.71 55.3622 132.247C56.6834 132.785 57.9134 133.103 59.0535 133.2C60.1941 133.297 61.2301 133.163 62.1645 132.803C63.0988 132.443 63.8673 131.819 64.4742 130.932C65.4423 129.515 65.9332 128.101 65.9456 126.695C65.9579 125.288 65.4884 123.791 64.5322 122.2L66.4232 121.545V121.545Z" fill="white"/>
<path d="M81.3257 103.384C81.7914 105.609 81.9078 107.72 81.6726 109.715C81.435 111.712 80.8899 113.498 80.0354 115.078C79.1799 116.654 78.0298 117.989 76.5855 119.081C75.1436 120.168 73.4346 120.925 71.4576 121.338C69.482 121.755 67.6138 121.756 65.8563 121.343C64.0979 120.927 62.5077 120.174 61.0895 119.075C59.6723 117.976 58.4538 116.562 57.4301 114.831C56.4098 113.098 55.6646 111.12 55.1983 108.894C54.7236 106.638 54.6062 104.513 54.8438 102.517C55.0814 100.52 55.627 98.7335 56.4844 97.1526C57.3302 95.5872 58.5101 94.2285 59.9399 93.1735C61.3875 92.0984 63.097 91.3533 65.0726 90.9366C67.0482 90.5194 68.9141 90.5123 70.6696 90.9113C72.4025 91.2997 74.0285 92.0671 75.4316 93.1587C76.8488 94.2572 78.0674 95.6713 79.0882 97.4038C80.1038 99.1344 80.8514 101.127 81.3257 103.383V103.384ZM64.1739 107C64.5337 108.713 64.9495 110.252 65.4238 111.614C65.8981 112.975 66.4114 114.112 66.9636 115.032C67.5159 115.953 68.1037 116.62 68.722 117.04C69.3427 117.46 69.9815 117.599 70.6373 117.46C71.2965 117.319 71.8235 116.934 72.2208 116.3C72.6181 115.666 72.8952 114.816 73.044 113.749C73.196 112.682 73.2151 111.43 73.1 109.993C72.985 108.556 72.7484 106.983 72.3867 105.266C72.0212 103.521 71.6006 101.97 71.1263 100.609C70.652 99.247 70.1307 98.1094 69.5656 97.194C68.9963 96.2772 68.4041 95.6083 67.7844 95.1921C67.1666 94.7721 66.5245 94.6334 65.8686 94.7726C65.2095 94.9132 64.682 95.298 64.2851 95.9325C63.8878 96.5666 63.6217 97.4162 63.4834 98.4818C63.3484 99.5464 63.336 100.796 63.4515 102.232C63.5684 103.665 63.8084 105.255 64.1739 107Z" fill="white"/>
<path d="M98.4291 102.104L90.4035 102.425L90.6863 109.379L95.4088 109.19L98.5179 107.729L98.8154 115.005L95.5961 113.799L90.8735 113.987L91.2561 123.334L93.9161 126.642L80.6215 127.175L83.0058 123.667L82.0838 101.057L79.4238 97.7489L101.387 96.8698L101.741 105.528L98.4291 102.104ZM122.544 87.4076L119.316 84.6581L96.8327 83.1954L93.2835 85.5058L94.6979 63.2001L103.308 63.7608L99.5811 66.7062L99.0554 75.0319L105.971 75.4819L106.273 70.6976L105.142 67.4857L112.377 67.9553L110.851 70.9966L110.548 75.7804L118.104 76.2729L118.624 67.9425L115.299 64.5389L123.956 65.1034L122.544 87.4076Z" fill="white"/>
<path d="M109.028 120.155L110.115 116.048L101.764 95.0206L98.1621 92.788L118.832 84.5291L122.03 92.5787L117.778 90.4566L110.064 93.5384L112.632 100.007L117.066 98.2354L119.47 95.8373L122.158 102.603L118.769 102.52L114.335 104.291L117.14 111.356L124.854 108.274L126.486 103.8L129.702 111.895L109.028 120.155ZM77.531 73.4106L75.7013 81.2619L82.448 82.8576L83.5239 78.2368L82.9513 74.8356L90.0097 76.5062L87.9922 79.2952L86.9163 83.916L95.9864 86.0604L99.8692 84.3751L96.8347 97.3839L94.1021 94.1348L72.1659 88.9477L68.2836 90.633L73.2942 69.1431L81.6919 71.1279L77.531 73.4106ZM42.1611 79.977L35.4334 85.2976L40.012 91.1327L43.9718 87.9999L45.7459 84.7803L50.5364 90.8838L47.0062 91.8602L43.0464 94.9925L49.2028 102.839L53.5604 104.027L42.4063 112.849L42.2756 108.318L27.3912 89.3429L23.0332 88.1539L41.4463 73.5889L47.1464 80.8552L42.1611 79.977Z" fill="white"/>
<path d="M60.0469 93.1933L59.1097 88.7585L41.112 72.808L36.5762 72.3918L46.19 61.4488L47.1966 65.8812L65.1943 81.8317L69.6607 82.2498L60.0469 93.1933Z" fill="white"/>
<path d="M76.8834 46.9967C77.1543 48.1467 77.2398 49.2447 77.1338 50.2973C77.0307 51.3491 76.766 52.3212 76.3402 53.2165C75.928 54.0882 75.3657 54.88 74.6792 55.5555C74.01 56.2129 73.2373 56.7551 72.3923 57.1603L72.4721 57.4969C72.9388 57.4869 73.4236 57.5846 73.923 57.7849C74.424 57.988 74.8987 58.2278 75.3521 58.5062C75.7685 58.7606 76.1641 59.0475 76.5355 59.3644C76.872 59.6561 77.112 59.8831 77.2512 60.0542L80.1008 64.0266C80.6236 64.6797 81.249 65.1188 81.9728 65.351C82.6966 65.5827 83.5264 65.4702 84.4589 65.014C84.331 65.6171 84.091 66.1544 83.7327 66.6273C83.3712 67.1031 82.933 67.515 82.4362 67.8459C81.9225 68.1882 81.3761 68.4784 80.8051 68.7122C80.223 68.952 79.6793 69.1312 79.1717 69.2509C77.6148 69.6213 76.2618 69.7153 75.1131 69.5322C73.9639 69.3496 72.9065 68.6492 71.9479 67.4278L67.7852 61.9451C67.3969 61.4321 66.8665 61.0359 66.1974 60.7555C65.5282 60.4752 64.89 60.4099 64.2874 60.5534L66.0078 67.8268L69.4638 70.7446L55.6031 74.0342L57.3863 69.8721L51.8325 46.3774L48.377 43.4592L61.3337 40.3836C63.2052 39.9383 65.005 39.749 66.7316 39.8091C68.4563 39.874 70.0165 40.1848 71.4037 40.7479C72.7943 41.3095 73.9663 42.12 74.9206 43.1717C75.8773 44.222 76.5317 45.4959 76.8834 46.9967V46.9967ZM68.0342 49.35C67.7401 48.1057 67.3 47.1321 66.7168 46.4294C66.1304 45.7286 65.4826 45.2156 64.7716 44.8966C64.0578 44.5786 63.3269 44.4313 62.5812 44.458C61.8322 44.4857 61.1697 44.6163 60.5871 44.8561L63.2356 56.0537C64.0445 56.0647 64.7911 55.9298 65.4788 55.6475C66.1537 55.3756 66.7502 54.9391 67.2144 54.3775C67.6835 53.8111 68.0057 53.1102 68.1792 52.2797C68.3427 51.442 68.298 50.4656 68.0338 49.35H68.0342Z" fill="white"/>
<path d="M101.634 52.518C101.9 54.2362 101.77 55.7566 101.251 57.0815C100.728 58.4074 99.9649 59.5511 98.9583 60.5223C97.9499 61.4901 96.7836 62.2682 95.4548 62.8551C94.1265 63.442 92.7991 63.8386 91.476 64.0432C90.3796 64.2119 89.3564 64.3135 88.4002 64.3435C87.5274 64.3743 86.6539 64.3853 85.7806 64.3764C84.9869 64.3669 84.2484 64.3564 83.5721 64.3435C82.8925 64.3321 82.2947 64.3659 81.7819 64.447C81.5552 64.4827 81.3175 64.6014 81.0699 64.8065C80.8228 65.0115 80.6175 65.2394 80.4583 65.4978L78.2617 51.2589C78.7246 52.5232 79.3838 53.7062 80.215 54.764C81.0581 55.8453 81.9867 56.7697 82.9952 57.5421C84.0065 58.3135 85.0369 58.9018 86.0886 59.3032C87.1403 59.7037 88.1345 59.8339 89.0698 59.6894C89.6607 59.5991 90.2444 59.4672 90.8168 59.2947C91.3686 59.1268 91.8562 58.9104 92.2768 58.6467C92.6974 58.3836 93.0196 58.0513 93.2378 57.6536C93.4559 57.256 93.5243 56.7812 93.4397 56.2305C93.3067 55.3566 92.9564 54.589 92.3899 53.9278C91.8244 53.2703 91.102 52.7101 90.2223 52.2467C89.3431 51.7866 88.3327 51.3952 87.195 51.0739C85.9937 50.739 84.7771 50.4624 83.5493 50.2448C81.6122 49.8825 79.908 49.0672 78.4404 47.799C76.9742 46.5342 76.0523 44.6868 75.6778 42.2562C75.4672 40.8956 75.5837 39.6188 76.0285 38.4212C76.47 37.225 77.1634 36.1389 78.103 35.1659C79.0421 34.1923 80.196 33.3747 81.5628 32.7163C82.9291 32.0584 84.4357 31.6007 86.0805 31.3475C87.7914 31.0824 89.3726 31.0228 90.8292 31.1592C92.2873 31.2984 93.5158 31.2927 94.5171 31.1363C94.7438 31.1001 94.9815 30.9814 95.2291 30.7768C95.4767 30.5718 95.6663 30.343 95.7922 30.0941L97.5934 41.758C97.179 40.7931 96.574 39.9168 95.7751 39.1301C94.981 38.3463 94.086 37.6725 93.1137 37.1268C92.1658 36.5924 91.1463 36.1974 90.0864 35.954C89.0423 35.718 88.0694 35.6689 87.165 35.8081C86.003 35.9883 85.0159 36.3735 84.1961 36.9628C83.3782 37.5554 83.0327 38.2543 83.1587 39.0639C83.2551 39.6808 83.6601 40.1795 84.3796 40.5666C85.0986 40.9528 85.9859 41.3056 87.0443 41.6217C88.0994 41.9392 89.2623 42.2581 90.535 42.5728C91.7935 42.8877 93.0295 43.2869 94.2348 43.7676C96.3131 44.6095 97.977 45.7018 99.225 47.0515C100.477 48.3921 101.279 50.2172 101.634 52.518V52.518ZM41.3405 57.8129C42.7482 61.3075 42.6256 64.4098 40.9707 67.1149C39.3159 69.8201 36.2952 72.0618 31.9087 73.8396L19.3355 78.9362L20.4732 74.5509L11.4558 52.1619L7.60156 49.8005L19.4001 45.0186C20.5507 44.5514 21.8153 44.1099 23.194 43.6932C24.5723 43.276 25.9068 43.0257 27.1952 42.9471C28.4831 42.8679 29.6413 43.0176 30.6749 43.3924C31.7062 43.7714 32.4495 44.5213 32.9024 45.6455C33.1319 46.2039 33.2305 46.8078 33.1904 47.4105C33.1515 48.0069 33.0125 48.5925 32.7793 49.1425C32.5363 49.7121 32.2056 50.2397 31.7994 50.7063C31.3848 51.1894 30.9075 51.6145 30.3803 51.9702L30.4539 52.1528C31.0238 51.9931 31.8103 51.9383 32.8183 51.9921C33.8249 52.0427 34.8681 52.2758 35.9497 52.6868C37.0314 53.0982 38.0613 53.7128 39.0422 54.5375C40.0212 55.348 40.7883 56.4417 41.3405 57.8129V57.8129ZM24.6355 49.8868C24.4639 49.461 24.1992 49.1359 23.8437 48.907C23.4887 48.6782 23.0847 48.5328 22.6366 48.4684C22.1879 48.4045 21.7179 48.435 21.2251 48.5638C20.7318 48.693 20.2532 48.887 19.7965 49.143L21.688 53.8391C22.8029 53.4577 23.6531 52.9085 24.2434 52.1924C24.8351 51.4791 24.9667 50.7101 24.6355 49.8868V49.8868ZM32.9376 61.5879C32.6 60.7563 32.1217 59.9895 31.5237 59.3213C30.9267 58.6446 30.195 58.1008 29.3756 57.7252C28.5567 57.349 27.64 57.1726 26.6291 57.195C25.6183 57.2169 24.5395 57.5125 23.396 58.0803L28.6485 71.1216C29.8566 70.632 30.8351 70.0232 31.5808 69.2956C32.3264 68.569 32.8544 67.781 33.161 66.9304C33.4694 66.0836 33.5998 65.1819 33.544 64.282C33.4924 63.3564 33.2874 62.4459 32.9376 61.5879V61.5879Z" fill="white"/>
<path d="M120.281 36.6064L115.604 37.876L121.408 59.3311L124.967 62.185L111.127 65.9466L112.808 61.6691L107.004 40.214L102.328 41.4831L99.7065 46.9835L97.0622 37.2042L122.669 30.2431L125.313 40.0223L120.281 36.6064ZM29.2893 17.2251L46.6074 23.0621C48.3401 23.6452 49.725 24.4514 50.7601 25.4745C51.7952 26.4967 52.5456 27.6051 53.008 28.7999C53.4709 29.9947 53.6981 31.2032 53.6848 32.4233C53.6734 33.6466 53.5051 34.7394 53.1858 35.7034L52.3161 38.3146C51.7999 39.8688 51.1246 41.249 50.2901 42.4557C49.4593 43.6605 48.4556 44.6302 47.2827 45.3554C46.1112 46.0834 44.7624 46.5106 43.2407 46.6359C41.7185 46.7609 40.0271 46.511 38.1698 45.885L21.6045 40.2979L17.3125 41.7024L21.9562 27.7653L24.5387 31.4888L41.4837 37.2004C42.5986 37.5761 43.5553 37.7773 44.3566 37.8059C45.1583 37.8354 45.8327 37.7148 46.384 37.454C46.928 37.1995 47.3919 36.8001 47.7251 36.2993C48.0659 35.7925 48.3549 35.1837 48.5934 34.4686C48.8097 33.8178 48.9242 33.1899 48.9375 32.5882C48.9499 31.9966 48.8066 31.4122 48.5221 30.8938C48.2351 30.3651 47.777 29.8726 47.1539 29.4206C46.5308 28.9692 45.7058 28.5696 44.6855 28.2268L27.5499 22.4461L23.2607 23.8492L26.692 13.5489L29.2888 17.2251H29.2893ZM135.617 105.496C136.009 106.469 136.004 107.459 135.603 108.471C135.199 109.485 134.501 110.192 133.503 110.597C133.027 110.792 132.514 110.881 132 110.859C131.498 110.842 131.003 110.728 130.544 110.522C130.085 110.312 129.665 110.025 129.304 109.672C128.931 109.315 128.639 108.882 128.448 108.402C128.253 107.923 128.163 107.408 128.184 106.891C128.201 106.386 128.304 105.887 128.487 105.416C128.675 104.947 128.951 104.52 129.301 104.158C129.656 103.784 130.087 103.491 130.565 103.299C131.041 103.104 131.554 103.015 132.068 103.036C132.577 103.056 133.077 103.167 133.546 103.365C134.011 103.565 134.432 103.853 134.787 104.215C135.144 104.583 135.426 105.018 135.617 105.496H135.617Z" fill="white"/>
<path d="M81.6791 28.1312L79.4383 23.8118L59.8152 34.064L57.804 38.1661L51.1719 25.3823L55.6944 26.1241L75.3174 15.8714L73.0766 11.5515L67.1664 10.1536L76.1097 5.48138L88.3773 29.1286L79.434 33.8004L81.6791 28.1312ZM128.303 54.446C128.3 56.1504 127.985 57.6236 127.362 58.8669C126.74 60.1108 126.086 61.0762 125.398 61.7609C125.234 61.9244 125.036 62.0045 124.809 62.0035C124.646 62.0026 124.515 61.9439 124.417 61.831C124.319 61.7141 124.301 61.5425 124.369 61.3137C124.467 61.0505 124.572 60.732 124.688 60.3573C124.803 59.9792 124.861 59.646 124.861 59.3513C124.863 59.0233 124.798 58.7435 124.668 58.5132C124.539 58.2824 124.245 58.2 123.789 58.2624C122.776 58.3897 121.945 58.0669 121.293 57.2951C120.641 56.5237 120.317 55.563 120.321 54.4135C120.325 53.3647 120.701 52.456 121.453 51.6893C122.205 50.9222 123.151 50.5389 124.296 50.5442C124.882 50.5451 125.423 50.6538 125.911 50.8703C126.384 51.0763 126.815 51.3689 127.181 51.7332C127.534 52.0876 127.815 52.506 128.012 52.9661C128.207 53.4309 128.303 53.921 128.303 54.446V54.446ZM129.878 87.6365C130.655 89.5645 129.757 91.6908 127.797 92.4851C125.858 93.2713 123.699 92.384 122.922 90.4556C122.162 88.5685 123.101 86.4255 125.039 85.6398C127.003 84.8436 129.119 85.7495 129.878 87.636V87.6365ZM123.792 90.1027C124.403 91.6179 126.002 92.3674 127.529 91.748C129.015 91.1459 129.625 89.5016 129.022 88.0055C128.413 86.4932 126.826 85.7128 125.319 86.324C123.811 86.9352 123.191 88.61 123.792 90.1027V90.1027ZM126.595 91.0386L125.811 91.3566L124.44 87.9545C124.724 87.7652 125.142 87.5511 125.7 87.3252C126.341 87.0653 126.669 87.0515 126.977 87.0977C127.22 87.1673 127.476 87.38 127.609 87.7099C127.758 88.0818 127.586 88.4908 127.225 88.7826L127.242 88.8241C127.621 88.816 127.908 88.9862 128.194 89.4029C128.505 89.8806 128.653 90.0627 128.786 90.1542L127.941 90.4966C127.789 90.4131 127.6 90.128 127.339 89.7757C127.125 89.4267 126.854 89.3457 126.421 89.5216L126.052 89.6713L126.601 91.0362L126.595 91.0386V91.0386ZM125.837 89.1025L126.21 88.9514C126.644 88.7755 126.936 88.4889 126.795 88.1371C126.669 87.8262 126.359 87.7099 125.862 87.9111C125.715 87.9678 125.575 88.0407 125.445 88.1285L125.837 89.1025Z" fill="white"/>
</svg>
