<svg width="227" height="192" viewBox="0 0 227 192" fill="none" xmlns="http://www.w3.org/2000/svg">
<g clip-path="url(#clip0_1_669)">
<mask id="mask0_1_669" style="mask-type:alpha" maskUnits="userSpaceOnUse" x="0" y="0" width="227" height="192">
<path d="M48.832 0.241821L226.689 71.9608L178.435 191.627L0.577831 119.908L48.832 0.241821Z" fill="white"/>
</mask>
<g mask="url(#mask0_1_669)">
<path fill-rule="evenodd" clip-rule="evenodd" d="M210.569 99.2493C210.544 99.2322 210.519 99.2215 210.495 99.2006C210.438 99.1512 210.387 99.0957 210.342 99.035C210.465 99.0591 210.575 99.0942 210.588 99.1594C210.594 99.189 210.585 99.2193 210.569 99.2493ZM221.34 84.5428L221.345 84.3527L221.323 84.1645C221.262 83.6162 220.875 81.7857 218.51 81.2622C218.124 81.1767 217.734 81.0983 217.346 81.0196L217.125 80.975C216.2 80.7873 212.045 80.0196 210.769 79.8284C210.435 79.7776 209.799 79.6663 209.063 79.5374C206.919 79.1607 205.343 78.8913 204.612 78.8479C204.252 78.8267 203.852 78.7739 203.43 78.7178C203.173 78.6837 202.917 78.6501 202.661 78.6208C201.742 78.5172 200.941 78.701 200.143 79.1993C199.903 79.3502 199.677 79.5216 199.466 79.7115C199.313 79.4223 199.138 79.1457 198.941 78.8844C198.098 77.7801 196.517 77.1364 196.449 77.1092C195.835 76.8621 194.345 76.4192 193.737 76.3265C193.179 76.2409 191.866 76.1248 190.886 76.3009C190.127 76.4375 188.103 77.1814 187.206 77.9376C187.047 78.0722 186.894 78.2137 186.749 78.3607C186.617 78.01 186.453 77.6722 186.26 77.3512C185.399 75.9324 184.063 75.31 183.129 74.964C182.85 74.8605 182.427 74.7018 181.928 74.6326C181.796 74.6117 181.305 74.5228 181.136 74.4847C181.045 74.4647 180.909 74.4363 180.53 74.369C180.24 73.709 179.939 73.054 179.626 72.4045L180.36 71.7635L179.556 69.8939C177.241 64.5095 173.614 60.123 170.098 56.0917C160.06 44.5825 146.687 37.7284 130.362 35.7197C122.497 34.7517 111.591 36.3753 101.187 40.0619C96.2313 41.818 84.586 46.5296 81.1384 53.0518C78.0304 55.8532 75.2097 58.9585 72.7182 62.3213C71.9156 61.9462 70.6566 61.7433 69.1216 62.8213L69.0766 62.8518C68.7926 63.0478 68.5649 63.1905 68.3596 63.2998C67.8872 63.5513 67.5186 63.711 67.2192 63.7935L67.142 63.6336C66.0926 61.4432 64.8577 59.5525 63.4731 58.0142C62.831 57.3003 62.1676 56.606 61.4838 55.9321C60.764 55.2242 59.9388 54.7279 59.2763 54.3292L59.0482 54.192C58.1739 53.6605 57.3127 53.3738 56.5531 53.1197C56.3234 53.0431 56.0936 52.9671 55.8665 52.8825C55.0314 52.5708 54.1533 52.333 53.1043 52.1348C50.6221 51.6629 48.2052 51.8249 45.9482 52.0639C44.5974 52.2076 43.3748 52.3521 42.0959 52.6759C40.8852 52.982 39.6989 53.3785 38.5471 53.8619C36.1486 54.8707 34.0227 56.2164 32.0517 57.5069C31.5511 57.8354 30.9697 58.2246 30.4087 58.6958C29.9705 59.0641 29.5941 59.4462 29.2613 59.7839C29.1581 59.8884 29.0551 59.9938 28.9485 60.0997C28.7137 60.3322 28.4678 60.5546 28.2238 60.7771C27.949 61.0261 27.6743 61.2766 27.4091 61.5364C26.0995 62.8166 24.6382 64.6419 23.0646 66.9627C22.0595 68.4457 21.3607 69.7515 20.6191 71.1341C20.421 71.5045 20.2169 71.8851 19.9994 72.2832C18.8538 74.3746 17.9515 76.5903 17.3101 78.887C16.9803 80.0751 16.6955 81.3259 16.4628 82.606C16.4257 82.8082 16.3293 83.2677 16.2233 83.7769C16.0049 84.8268 15.857 85.5433 15.7979 85.919C15.592 87.2238 15.5761 88.4744 15.5776 89.7473C15.5793 91.0663 15.6256 92.1436 15.7235 93.136C15.9955 95.8864 16.7131 98.4072 17.856 100.628C18.4041 101.692 18.9586 102.622 19.5496 103.47C20.2818 104.521 21.021 105.541 22.0121 106.472C23.9204 108.264 26.0125 109.409 27.8075 110.293C29.8211 111.284 32.0477 111.937 34.6102 112.295C35.2118 112.377 35.8141 112.453 36.4171 112.515C36.7399 112.549 37.0402 112.548 38.8766 112.398C38.8744 112.403 38.8725 112.408 38.8693 112.412L38.8402 112.471C38.6717 112.799 38.3211 113.482 38.3349 114.376C38.3566 115.844 39.2572 117.115 40.5761 117.539C40.6874 117.575 40.8272 117.613 40.9893 117.641C41.8249 117.788 43.2681 117.701 44.5699 115.943L45.0478 115.3C45.6731 114.461 46.7262 113.047 47.2336 112.36C47.8035 111.588 48.2863 110.832 48.7528 110.1C48.9419 109.804 49.132 109.504 49.3307 109.203C49.4949 108.953 50.3231 107.862 50.7216 107.337L51.0099 106.956C51.2187 107.63 51.4832 108.285 51.8005 108.915C52.1709 109.654 52.7589 110.747 53.5827 111.714C54.4784 112.764 55.4729 113.533 56.2408 114.086C57.2558 114.816 58.1243 115.35 58.9743 115.766C59.3962 115.972 60.3042 116.379 61.028 116.586L61.4739 116.717C61.9223 116.851 62.3717 116.981 62.822 117.109C63.7368 120.279 64.8993 123.372 66.2988 126.359C68.2403 132.124 71.6519 137.62 77.0231 143.639C86.5663 154.332 98.1549 160.913 111.562 163.272C114.352 163.762 117.222 164.071 120.167 164.195C137.196 164.914 152.338 159.458 165.172 147.98C167.737 145.685 170.644 143.085 172.009 138.951L172.017 138.925C172.715 138.055 173.389 137.167 174.039 136.261C176.63 136.694 179.876 137.224 180.857 137.342C181.493 137.418 182.113 137.498 182.696 137.617C183.009 137.682 183.322 137.736 183.634 137.788C184.029 137.855 184.398 137.916 184.709 138C185.707 138.269 186.715 138.498 187.731 138.687C188.631 138.87 189.379 138.74 189.965 138.518C190.136 138.705 190.32 138.88 190.524 139.034C191.095 139.459 191.759 139.743 192.461 139.862C194.08 140.147 195.856 139.616 196.965 138.356C197.983 137.199 198.481 135.733 198.299 134.435C198.142 133.316 197.519 132.36 196.548 131.74C196.091 131.45 195.586 131.243 195.057 131.128C196.335 128.935 197.024 127.499 197.103 126.855C197.265 125.509 196.56 124.266 195.404 123.715C194.038 122.92 192.116 122.985 190.643 124.885C189.938 125.625 186.251 128.142 185.178 128.67C184.535 128.989 183.874 129.27 183.198 129.512C182.724 129.681 182.35 129.791 182.064 129.782C181.573 129.767 181.027 129.68 180.365 129.569C180.118 129.527 179.806 129.476 179.485 129.424L179.521 129.336C179.627 129.063 179.803 128.74 179.989 128.398C180.075 128.24 180.16 128.082 180.242 127.924C180.449 127.536 181.856 125.23 182.786 123.704L183.422 122.66C183.445 123.106 183.558 123.542 183.754 123.942C183.96 124.371 184.259 124.749 184.628 125.048C184.997 125.348 185.427 125.562 185.889 125.676C186.871 125.919 187.922 125.694 188.778 125.062C189.704 124.376 190.246 123.446 190.641 122.768C190.712 122.647 190.781 122.528 190.85 122.419C191.129 121.973 191.412 121.531 191.696 121.09C191.879 120.806 192.062 120.522 192.243 120.236C192.471 119.877 192.728 119.51 193 119.121C193.575 118.301 194.227 117.369 194.733 116.306L194.754 116.263C195.024 115.697 195.744 114.196 194.956 112.666C194.756 112.277 194.477 111.934 194.136 111.66C193.794 111.387 193.399 111.189 192.975 111.079C192.276 110.899 191.649 110.988 191.145 111.156C191.359 110.866 191.54 110.624 191.671 110.447C191.883 110.165 192.088 109.878 192.293 109.591C192.515 109.281 192.737 108.97 192.969 108.667C193.143 108.442 193.311 108.212 193.48 107.98C193.756 107.603 194.017 107.246 194.271 106.963C194.367 106.854 194.465 106.747 194.56 106.646L194.748 106.675C195.434 106.783 196.122 106.892 196.801 107.016C197.482 107.137 198.153 107.302 198.812 107.512C199.266 107.66 199.508 107.777 199.632 107.85C199.636 107.961 199.636 108.102 199.636 108.216L199.636 108.267C199.637 108.575 199.613 108.802 199.562 108.959C199.491 109.176 199.418 109.391 199.346 109.605C199.139 110.211 198.927 110.837 198.75 111.518L198.706 111.645C198.372 112.587 197.753 114.34 198.86 115.851C199.48 116.698 200.457 117.163 201.538 117.126C203.306 117.066 204.265 115.718 204.626 115.211C204.647 115.183 204.666 115.155 204.684 115.127C205.201 114.525 205.55 113.899 205.821 113.368C206.068 112.887 206.436 112.374 206.827 111.831C206.943 111.671 207.059 111.51 207.171 111.349C207.585 110.763 207.944 110.173 208.293 109.603L208.489 109.283C208.985 108.475 209.603 107.47 209.942 106.259C210.235 105.205 210.194 104.359 209.988 103.689C210.131 103.689 210.274 103.695 210.416 103.685C213.267 103.466 215.58 101.181 215.681 98.4672C215.702 97.7988 215.572 97.1345 215.3 96.5241C215.028 95.9137 214.621 95.3731 214.111 94.9428C213.567 94.4849 212.928 94.1543 212.241 93.9752C211.553 93.796 210.834 93.7728 210.136 93.9071L210.134 93.9066C210.031 93.9275 209.928 93.9525 209.827 93.9817C210.078 93.5861 210.328 93.1989 210.585 92.8286L210.783 92.5409C210.881 92.3992 210.977 92.2585 211.075 92.1193C211.261 91.8567 211.442 91.5898 211.624 91.3229C211.878 90.9466 212.118 90.5924 212.361 90.2687C212.811 89.671 213.203 89.0752 213.582 88.4986C213.716 88.2958 213.846 88.0958 213.976 87.9019C214.062 88.1335 214.175 88.3549 214.314 88.5642C214.545 88.914 214.846 89.2125 215.197 89.4415C215.549 89.6706 215.943 89.8252 216.356 89.8959C216.924 89.9953 218.784 90.123 219.882 87.8576L219.89 87.8413C219.934 87.7659 220.001 87.6627 220.076 87.5425C220.844 86.3176 221.317 85.5177 221.339 84.544L221.34 84.5428Z" fill="#FFFFFE"/>
<path fill-rule="evenodd" clip-rule="evenodd" d="M182.18 110.535C176.418 143.168 145.327 164.974 112.735 159.239C80.1439 153.504 58.395 122.402 64.1581 89.7684C69.9204 57.1355 101.012 35.3302 133.603 41.0651C166.194 46.7994 187.943 77.9021 182.181 110.535" fill="white"/>
</g>
<path fill-rule="evenodd" clip-rule="evenodd" d="M133.561 41.3831C130.664 41.0969 127.849 40.5999 125.028 40.5851C118.854 40.5522 119.602 39.9318 120.611 45.9061C120.634 46.0392 120.781 46.1502 120.952 46.3825C125.471 45.992 130.884 48.1918 133.562 41.3833L133.561 41.3831ZM117.299 40.5733L103.094 44.506C104.255 45.9585 105.041 47.0021 105.897 47.9826C106.22 48.3524 106.765 48.8901 107.109 48.8228C110.861 48.089 114.593 47.2497 118.485 46.4055L117.299 40.5733V40.5733ZM132.705 46.4682C145.606 48.1639 157.057 52.7147 167.19 60.5757C166.161 59.0889 165.078 57.6958 163.828 56.4748C157.396 50.1897 149.746 45.9918 141.208 43.3264C136.942 41.996 135.794 42.3559 132.705 46.4682ZM83.1497 56.62C84.8438 47.8051 113.398 36.9476 130.177 38.9841C145.14 40.8006 158.088 46.8792 168.105 58.4251C171.586 62.437 174.968 66.5994 177.071 71.5359L176.333 72.186C175.675 71.6677 174.927 71.2322 174.373 70.6192C163.41 58.4758 149.818 51.3072 133.663 49.0047C132.903 48.8966 131.533 49.0407 131.391 49.4193C131.077 50.2622 131.056 51.497 131.471 52.2649C132.155 53.529 133.16 54.6839 134.239 55.648C138.163 59.1549 142.191 62.5433 146.139 66.023C147.003 66.784 147.699 67.7358 148.473 68.5997L147.941 69.2816C147.337 68.9824 146.641 68.7917 146.143 68.3675C141.547 64.4546 136.964 60.5262 132.422 56.5496C130.163 54.5723 128.171 52.3965 128.872 48.6887C126.509 48.7249 124.434 48.6394 122.397 48.8829C121.964 48.9351 121.306 50.2287 121.369 50.8869C121.74 54.7567 122.312 58.6052 122.77 62.4664C122.863 63.2458 122.761 64.0497 122.748 64.8423L121.945 65.0558C121.625 64.2295 121.161 63.4288 121.012 62.5714C120.363 58.8177 119.757 55.0536 119.237 51.2782C119.017 49.669 118.435 48.8708 116.685 49.2438C115.402 49.5172 114.068 49.5333 112.781 49.7925C111.266 50.0969 109.358 50.1107 108.404 51.0523C107.58 51.8644 107.855 53.8022 107.64 55.2421C107.319 57.393 106.842 59.4382 103.778 60.6379C104.899 57.5182 106.41 55.0106 105.026 51.775L90.9547 58.2068L90.3402 57.3687C91.0074 56.7218 91.5732 55.8753 92.3609 55.4621C95.5924 53.7674 98.8915 52.2016 102.168 50.593C102.779 50.2932 103.399 50.0129 104.016 49.7236C102.136 45.75 101.101 45.1636 97.688 47.2234C93.6489 49.6595 89.8735 52.5443 86.0205 55.2858C85.1812 55.8821 84.4923 56.6929 83.7346 57.4057L83.1494 56.6206L83.1497 56.62ZM130.767 121.613L135.961 158.606C149.581 155.5 160.415 148.511 169.52 138.439C168.404 141.818 165.929 144.062 163.487 146.249C151.265 157.192 136.921 162.432 120.568 161.748C104.15 161.063 90.4334 154.434 79.5033 142.173C74.3766 136.422 70.0791 130.135 68.3759 122.294C75.504 136.624 85.3914 148.124 100.43 154.64C93.8649 141.767 89.6708 135.846 88.8019 121.36L89.843 121.009C90.1314 121.775 90.6065 122.523 90.6805 123.31C91.9067 136.246 95.3868 140.789 101.501 152.133C103.196 155.278 105.425 157.061 109.019 157.862C116.482 159.522 123.921 160.282 131.54 159.389C133.595 159.148 134.267 158.514 133.952 156.333C132.464 146.005 131.132 135.654 129.77 125.307C129.617 124.137 129.623 122.944 129.555 121.762L130.767 121.613" fill="black"/>
<path fill-rule="evenodd" clip-rule="evenodd" d="M63.0544 65.7893C63.5619 66.8564 64.0395 67.96 64.3513 69.0992C64.6093 70.0391 64.803 71.011 64.7575 71.9802C64.7455 72.2441 64.7121 73.29 64.6773 73.5745C64.6285 73.9711 64.5659 74.3641 64.4893 74.7557C64.4067 75.1811 64.3267 75.6068 64.2508 76.0328C64.1993 76.3225 64.1284 76.7602 64.5229 76.8414C64.9237 76.9243 65.1043 76.3937 65.2659 76.1185C65.538 75.6575 65.8666 75.2854 66.2029 74.8718C66.5033 74.5023 66.8002 74.1313 67.1007 73.7617C67.8345 72.8584 68.5097 71.9453 69.2103 71.0161C69.7896 70.2495 71.6086 67.6956 71.7957 67.1593C71.9335 66.7659 72.4312 66.2518 72.0119 65.8739C71.6733 65.5696 71.2841 65.8818 70.9896 66.0832C70.6686 66.3039 70.3433 66.511 69.9984 66.6928C69.0372 67.2003 68.0441 67.6079 66.9407 67.5687C66.4753 67.553 65.6837 67.366 65.4777 66.9071C65.3043 66.5205 65.1167 66.1414 64.9316 65.7598C64.0715 63.9819 63.009 62.27 61.677 60.7995C61.0682 60.1267 60.4394 59.4723 59.7915 58.8372C59.2376 58.2951 58.5106 57.8877 57.8518 57.4885C57.002 56.9739 56.0484 56.7459 55.1287 56.4029C54.3678 56.1191 53.6056 55.928 52.8102 55.7763C50.7084 55.3757 48.556 55.5037 46.4396 55.7215C45.2726 55.8419 44.1024 55.97 42.9626 56.2537C41.8845 56.522 40.8278 56.8707 39.8014 57.2968C37.643 58.1943 35.6881 59.414 33.7376 60.6815C33.2628 60.9905 32.7933 61.3037 32.3579 61.6669C31.8975 62.0505 31.4927 62.4894 31.0664 62.9091C30.5622 63.4067 30.0178 63.8609 29.5097 64.3541C28.0936 65.7299 26.6242 67.7113 25.523 69.3309C24.3405 71.0695 23.6085 72.5625 22.5985 74.4075C21.5552 76.3046 20.7356 78.3164 20.1561 80.4024C19.8405 81.5433 19.581 82.702 19.3709 83.8673C19.2766 84.3889 18.8121 86.5402 18.7241 87.1082C18.549 88.2298 18.5418 89.3587 18.5457 90.4913C18.5499 91.5301 18.5824 92.5712 18.6871 93.6053C18.9175 95.8628 19.4981 98.0667 20.5493 100.087C20.9978 100.962 21.5042 101.806 22.065 102.613C22.6998 103.516 23.3537 104.421 24.1642 105.177C25.6965 106.61 27.4401 107.618 29.3139 108.539C31.2185 109.475 33.2027 110.001 35.2992 110.295C35.8717 110.376 36.4456 110.448 37.0206 110.509C37.2614 110.534 39.1721 110.373 39.3254 110.363C39.6264 110.344 39.922 110.273 40.2232 110.268C40.7913 110.253 41.3426 110.46 41.7609 110.844C41.9951 111.054 42.2494 111.864 42.2395 112.128C42.2269 112.466 42.2343 112.777 42.1277 113.387C42.0453 113.855 41.8243 114.198 41.7154 114.42C41.6149 114.625 41.463 114.874 41.4667 115.109C41.4746 115.549 41.8729 116.142 42.6773 115.06C42.8551 114.821 44.6313 112.449 45.3391 111.494C46.0755 110.502 46.6691 109.505 47.3482 108.474C47.6693 107.986 49.1056 106.134 49.4712 105.639C49.728 105.291 50.2438 104.5 50.3852 104.061C50.5149 103.657 49.8846 103.361 49.4049 103.495C48.9659 103.617 48.5472 104.085 48.1884 104.354C47.7192 104.707 47.2193 105.023 46.7226 105.336C45.7503 105.951 44.7305 106.615 43.6301 106.969C42.5082 107.331 41.3521 107.577 40.1801 107.701C38.9812 107.825 37.8833 107.937 36.6815 107.908C35.5142 107.879 34.526 107.878 33.3874 107.589C33.1279 107.522 32.5224 107.291 32.3075 107.135C32.0896 106.976 31.8945 106.734 31.7225 106.528C31.3773 106.116 31.0974 105.651 30.8374 105.183C30.3994 104.405 30.0051 103.604 29.656 102.782C28.8132 100.764 28.3293 98.4713 28.2642 96.2881C28.1947 93.9778 28.6855 91.6804 29.1339 89.428C29.5643 87.2719 30.1693 85.196 31.0155 83.1666C31.8257 81.2228 32.644 79.5587 33.821 77.8234C34.5752 76.7111 35.464 75.539 36.1968 74.4125C37.3862 72.5827 38.9318 70.8033 40.3199 69.1148C41.5767 67.5864 42.884 66.1223 44.3239 64.7603C45.9231 63.2475 47.5471 61.7579 49.3651 60.5038C50.2619 59.8855 51.1852 59.2722 52.2127 58.893C52.6745 58.7229 53.1563 58.5462 53.6492 58.5006C54.2044 58.4503 54.7554 58.4811 55.3065 58.5599C55.8582 58.639 56.456 58.7276 56.9674 58.9547C57.4552 59.1716 57.9346 59.4213 58.3951 59.6884C59.1226 60.1119 59.7655 60.9002 60.3255 61.5255C60.9265 62.1973 61.3966 62.9576 61.8622 63.7237C62.2759 64.4035 62.6844 65.084 63.0544 65.7893" fill="black"/>
<path fill-rule="evenodd" clip-rule="evenodd" d="M80.495 95.4903C80.1472 96.6698 79.7226 97.7987 79.1719 98.8991C78.4652 100.31 77.7167 101.715 76.8491 103.033C76.351 103.789 75.9558 104.606 75.4617 105.364C74.9829 106.1 74.4342 106.773 73.8494 107.428C72.8109 108.59 71.7166 109.709 70.3444 110.476C68.9018 111.281 67.7233 111.36 65.721 111.3C64.3517 111.077 62.7249 110.62 62.0097 109.274C61.1385 107.632 61.2187 105.654 61.5155 103.876C61.7322 102.576 62.0032 101.257 62.5361 100.046C63.2103 98.5112 63.9645 97.0474 64.8132 95.6044C66.3904 92.9231 68.109 90.2738 70.3118 88.0619C71.5111 86.857 72.9256 85.8905 74.4227 85.091C75.1646 84.6949 75.9352 84.3138 76.7815 84.2117C77.1436 84.1683 77.5381 84.1409 77.8883 84.2612C78.0899 84.33 78.3632 84.4395 78.5471 84.545C78.6002 84.5754 79.3387 85.0939 79.4809 85.2375C79.6506 85.4076 79.8095 85.7473 79.9204 85.9598C80.1238 86.348 80.2654 86.7134 80.4194 87.1222C80.7188 87.9166 80.8136 88.7428 80.9118 89.5897C81.0249 90.5583 80.9663 91.5564 80.9302 92.5281C80.8965 93.5286 80.7506 94.5223 80.495 95.4903V95.4903ZM80.9068 109.528C82.2341 108.282 83.3713 106.907 84.4881 105.471C85.4546 104.226 86.3525 102.983 87.0356 101.56C87.4599 100.673 87.903 99.7603 88.2489 98.8404C88.5787 97.9642 88.7692 97.0471 88.9185 96.1203C89.2027 94.3612 89.1266 92.5411 88.6105 90.8337C88.3184 89.8842 87.978 88.9504 87.5907 88.0358C87.25 87.2233 86.7984 86.4809 86.2859 85.7619C85.8313 85.1334 85.3119 84.5545 84.7365 84.0346C84.0773 83.4348 83.4444 82.906 82.6879 82.4374C81.9207 81.9624 81.1113 81.3715 80.2602 81.0652C79.457 80.7761 78.6034 80.5224 77.7624 80.3802C76.8353 80.2176 75.8931 80.1567 74.9526 80.1987C74.5073 80.2175 73.9972 80.2387 73.5505 80.2611C73.0851 80.285 72.6222 80.3615 72.1661 80.4553C70.3259 80.8324 68.4857 81.5646 66.8249 82.4338C66.0022 82.8649 65.0657 83.3009 64.3023 83.8297C63.5531 84.3489 62.8608 84.7685 62.0984 85.2741C60.6677 86.2207 59.3686 87.382 58.2271 88.6638C57.2077 89.8084 56.3354 90.8313 55.6395 92.0729C55.1212 92.9963 54.8115 93.9315 54.4979 94.8797C54.2021 95.7752 53.9957 96.6971 53.8673 97.6323C53.6385 99.3023 53.4658 100.954 53.5011 102.637C53.5217 103.591 53.7356 104.606 53.9112 105.545C54.0659 106.376 54.3691 107.168 54.7482 107.921C55.1372 108.695 55.5891 109.485 56.1534 110.146C56.7846 110.885 57.5173 111.482 58.3047 112.048C59.0385 112.577 59.8098 113.081 60.6234 113.479C61.0492 113.687 61.7583 113.989 62.2129 114.12C62.5994 114.231 63.911 114.629 64.3347 114.729C64.8407 114.847 65.4837 114.981 65.9967 115.061C66.9803 115.215 67.7959 115.192 68.7882 115.067C69.755 114.946 70.6968 114.713 71.6279 114.43C72.0949 114.289 72.5481 114.112 73.0135 113.965C73.4367 113.83 73.8616 113.708 74.2629 113.53C74.588 113.385 74.9416 113.225 75.2762 113.103C75.7231 112.941 76.1128 112.748 76.5388 112.539C77.3942 112.122 78.1953 111.601 78.9694 111.051C79.6346 110.578 80.3095 110.088 80.9068 109.528V109.528ZM144.603 96.281C145.125 96.4557 145.501 96.6617 145.832 97.1084C146.151 97.5385 146.387 98.0005 146.335 98.5545C146.23 99.6819 145.916 100.856 145.585 101.936C145.433 102.433 145.224 102.889 145.03 103.369C144.958 103.549 144.882 103.75 144.984 103.935C145.083 104.115 145.28 104.171 145.466 104.092C145.86 103.926 146.169 103.332 146.4 102.993C146.522 102.814 148.561 99.807 149.268 98.7892C149.651 98.2335 150.052 97.691 150.472 97.1627C150.719 96.8545 151.026 96.5426 151.161 96.164C151.332 95.6798 151.129 95.1579 150.719 94.8791C150.031 94.411 146.263 93.9783 145.262 93.8281C144.38 93.6957 140.601 93.0368 139.588 92.8556C138.538 92.6685 137.498 92.4155 136.439 92.2717C135.343 92.1242 134.263 91.9219 133.169 91.7586C132.032 91.589 130.901 91.394 129.778 91.1547C129.286 91.0496 128.804 90.9519 128.3 90.9236C128.089 90.9113 127.333 90.9053 127.184 91.1035C126.703 91.7431 128.139 91.9122 128.272 92.3333C128.368 92.6365 128.078 93.1766 127.959 93.4601C127.775 93.9001 127.61 94.3495 127.368 94.7627C126.881 95.5938 126.453 96.468 125.934 97.2783C125.519 97.9241 125.079 98.5635 124.704 99.2344C124.537 99.5326 124.379 99.8358 124.212 100.133C124.222 100.128 124.233 100.123 124.243 100.118C123.813 100.77 123.473 101.48 123.059 102.143C122.583 102.905 122.061 103.636 121.596 104.405C120.956 105.464 120.342 106.538 119.756 107.627C119.381 108.321 119.038 109.026 118.685 109.731C118.332 110.438 117.928 111.119 117.573 111.826C117.093 112.781 114.604 117.225 113.774 118.447C113.371 119.039 113.032 119.667 112.594 120.235C112.037 120.962 111.263 121.323 110.418 121.613C110.152 121.705 109.861 121.755 109.626 121.923C109.292 122.162 109.28 122.56 109.618 122.795C109.921 123.005 110.324 123.064 110.677 123.14C111.024 123.215 111.373 123.285 111.719 123.363C112.601 123.562 120.241 124.622 120.575 124.658C120.769 124.679 120.962 124.73 121.155 124.758C121.402 124.795 121.684 124.838 121.921 124.732C122.287 124.568 122.368 124.137 122.157 123.814C121.974 123.534 121.664 123.375 121.451 123.125C121.17 122.794 121.139 122.37 121.23 121.957C121.305 121.618 129.201 107.726 129.237 107.66C129.255 107.549 129.309 107.528 129.399 107.596C129.601 107.596 129.875 107.748 130.068 107.81C130.246 107.867 130.425 107.924 130.604 107.979C130.895 108.068 131.187 108.149 131.479 108.231C131.957 108.365 132.463 108.466 132.911 108.683C133.238 108.843 133.539 109.102 133.544 109.489C133.549 109.856 133.457 110.218 133.417 110.58C133.383 110.901 133.039 112.253 133.626 112.212C134.008 112.185 134.321 111.562 134.484 111.277C134.666 110.958 134.856 110.643 135.031 110.319C135.865 108.781 136.934 107.391 137.738 105.831C137.853 105.609 138.263 105.004 138.086 104.744C137.872 104.428 137.4 104.954 137.238 105.099C136.595 105.675 135.949 106.304 135.18 106.707C134.818 106.897 134.4 107.055 133.997 107.123C133.635 107.183 133.304 107.075 132.957 106.986C132.573 106.888 132.186 106.79 131.803 106.687C131.219 106.532 130.653 106.343 130.071 106.163C130.473 105.55 132.182 102.398 132.345 102.075C132.846 101.087 133.442 100.137 134.003 99.1824C134.343 98.6014 134.64 97.9945 134.946 97.3955C135.195 96.9109 135.446 96.3641 135.775 95.9326L135.744 95.9577C135.927 95.6834 136.165 95.1779 136.444 95.0093C136.707 94.8507 137.089 94.8133 137.386 94.7932C137.772 94.7652 138.159 94.7801 138.542 94.8376C138.922 94.8976 139.298 95.0292 139.677 95.1061C140.5 95.2751 141.319 95.4116 142.131 95.6313C142.953 95.854 143.785 96.0464 144.604 96.2804L144.603 96.281ZM116.081 90.1189C116.74 90.3428 117.334 90.8037 117.811 91.3038C118.064 91.5687 118.301 91.8645 118.456 92.1987C118.547 92.3931 118.581 92.4983 118.535 92.714L118.501 92.8682C118.377 93.4495 117.424 95.8041 117.241 96.0628C116.96 96.4585 116.317 97.2013 116.871 97.647C117.412 98.0814 117.976 97.3455 118.263 96.9554C118.91 96.0762 119.451 95.095 120.06 94.1879C120.279 93.8621 120.464 93.5143 120.721 93.2182C120.893 93.0191 121.051 92.8071 121.21 92.5978C121.55 92.1516 121.839 91.6689 122.196 91.238C122.531 90.835 123.27 90.1689 123.067 89.5777C122.888 89.0572 122.237 88.9451 121.773 88.8725C121.22 88.7863 120.668 88.782 120.118 88.6801C119.557 88.5749 118.99 88.507 118.425 88.4267C117.654 88.3162 116.885 88.2409 116.121 88.0907C115.745 88.0159 115.369 87.9457 114.994 87.8702C112.987 87.4659 110.945 87.2144 108.931 86.8416C106.784 86.4446 104.604 86.2119 102.476 85.7114C101.338 85.4443 100.089 85.0328 98.9005 85.1364C98.647 85.1587 98.2598 85.2093 98.2952 85.5521C98.3249 85.8369 98.6336 85.9224 98.7815 86.1171C99.0443 86.4611 99.2763 87.0057 99.2471 87.4366C99.2148 87.9129 99.1652 88.3787 98.9365 88.8064C98.7362 89.1808 98.5253 89.5503 98.3112 89.9178C97.8773 90.6629 97.4587 91.4115 97 92.1425C96.451 93.0181 95.9534 93.9213 95.3863 94.7868C94.6163 95.9623 93.8173 97.1101 93.1033 98.3208C91.8268 100.487 90.5331 102.638 89.2132 104.777C88.68 105.641 82.8229 114.858 82.2037 115.495C81.6902 116.022 81.0091 115.999 80.3469 116.18C80.0812 116.253 79.7455 116.35 79.6852 116.668C79.6166 117.033 79.9833 117.164 80.2625 117.235C80.6643 117.334 81.0768 117.366 81.4836 117.434C82.1383 117.543 89.9411 119.131 90.4709 119.245C90.9644 119.351 91.82 119.608 92.1534 119.489C92.4036 119.4 92.5029 119.133 92.4241 118.88C92.3429 118.62 92.0947 118.477 91.8813 118.336C91.6999 118.216 91.5107 118.101 91.413 117.899C91.236 117.537 91.2675 117.076 91.3694 116.7C91.5285 116.114 91.7944 115.525 92.0941 114.997C92.4325 114.403 92.7696 113.808 93.1298 113.226C93.4761 112.667 94.3508 111.213 94.4002 111.147C94.4793 111.044 94.8701 110.437 95.0018 110.246C95.7366 109.184 96.3982 108.082 97.1019 107.001C97.5521 106.308 98.9362 104.345 99.1533 104.043C99.5052 103.554 99.817 102.895 100.371 102.618C100.547 102.529 100.844 102.274 101.025 102.243C101.209 102.211 101.518 102.349 101.698 102.385C101.961 102.438 102.228 102.482 102.492 102.533C102.935 102.618 103.372 102.723 103.813 102.806C103.996 102.841 104.178 102.874 104.36 102.912L104.591 102.961C104.716 102.988 105.131 102.998 105.205 103.089C105.262 103.159 105.226 103.447 105.223 103.553C105.218 103.704 105.194 103.845 105.147 103.989C105.04 104.313 104.849 104.59 104.69 104.888C104.535 105.18 103.909 106.316 104.602 106.314C105.197 106.313 105.854 105.589 106.209 105.175C106.516 104.815 106.808 104.432 107.082 104.045C107.428 103.55 107.756 103.043 108.067 102.525C108.459 101.887 108.917 101.233 109.094 100.492C109.207 100.021 109.183 99.1029 108.511 99.6115C107.973 100.02 107.644 100.666 107.066 101.025L107.116 101.003C106.776 101.193 106.464 101.426 106.133 101.632L106.161 101.622C106.083 101.667 106.007 101.72 105.925 101.759C105.704 101.864 105.41 101.843 105.168 101.833C104.846 101.818 104.514 101.724 104.192 101.671C103.374 101.538 102.306 101.473 101.803 100.723C101.766 100.668 101.73 100.612 101.694 100.556C101.606 100.423 101.571 100.399 101.623 100.254C101.717 99.9929 101.935 99.73 102.074 99.4894C102.268 99.152 102.46 98.8155 102.636 98.4689C103.001 97.753 103.369 97.041 103.748 96.3327C104.726 94.5068 105.744 92.6764 107.047 91.058C107.59 90.3851 108.135 89.722 108.696 89.064C108.82 88.9185 108.877 88.8168 109.057 88.8039C109.155 88.7966 109.258 88.8133 109.357 88.8161C109.841 88.8305 110.316 88.8487 110.795 88.9264C112.398 89.1876 113.976 89.5492 115.549 89.9586L115.481 89.9347C115.682 89.9948 115.883 90.0534 116.081 90.1195L116.081 90.1189ZM165.472 121.965C165.489 121.826 165.436 121.692 165.283 121.659C165.168 121.635 164.747 121.043 163.973 122.063C163.249 123.018 158.855 125.975 157.574 126.606C156.837 126.972 156.079 127.294 155.304 127.572C154.602 127.822 153.913 128.024 153.158 128.001C152.467 127.98 151.77 127.867 151.09 127.752C150.233 127.608 148.565 127.349 148.592 127.34C148.255 127.204 147.708 127.093 147.404 126.773C147.276 126.638 147.29 126.198 147.29 126.018C147.291 125.223 147.844 124.483 148.127 123.761C148.356 123.174 148.681 122.634 148.972 122.077C149.369 121.318 153.032 115.39 153.274 114.931C153.519 114.466 153.795 114.014 154.06 113.56C154.133 113.436 154.194 113.256 154.317 113.22C154.443 113.183 154.661 113.242 154.8 113.25C155.326 113.281 155.846 113.36 156.367 113.434C156.827 113.5 157.282 113.602 157.729 113.726C157.915 113.778 158.092 113.803 158.217 113.931C158.374 114.092 158.426 114.304 158.411 114.525C158.381 115.007 158.178 115.53 158.026 115.987C157.908 116.342 157.753 116.682 157.632 117.035C157.519 117.367 157.264 117.827 157.432 118.172C157.607 118.531 158.015 118.474 158.286 118.273C158.879 117.834 159.264 117.014 159.648 116.398C160.109 115.662 160.582 114.937 161.048 114.205C161.812 113.003 162.752 111.875 163.365 110.585C163.497 110.307 163.786 109.741 163.626 109.43C163.435 109.058 162.955 109.375 162.729 109.529C161.929 110.07 161.385 110.88 160.671 111.514C160.322 111.826 159.883 112.108 159.423 112.213C158.951 112.32 158.487 112.215 158.023 112.116C157.425 111.988 156.82 111.89 156.22 111.774C155.891 111.711 155.561 111.666 155.229 111.623C156.02 110.48 159.609 105.6 160.603 104.27C161.049 103.675 161.465 103.055 161.919 102.466C162.392 101.851 162.83 101.186 163.347 100.609C163.615 100.308 164.395 99.4571 164.629 99.333C164.728 99.2801 165.33 99.3021 165.445 99.289C165.6 99.2712 165.832 99.3488 165.984 99.3726C166.804 99.502 167.627 99.6279 168.443 99.7781C169.242 99.9202 170.031 100.115 170.804 100.362C171.814 100.691 172.986 101.208 173.376 102.288C173.546 102.761 173.541 103.254 173.543 103.751C173.544 104.283 173.495 104.808 173.329 105.316C173.064 106.127 172.766 106.923 172.555 107.751C172.456 108.143 171.669 109.843 172.564 109.812C173.072 109.794 173.397 109.118 173.684 108.785C173.992 108.426 174.229 108.009 174.449 107.579C174.876 106.744 175.46 105.993 175.998 105.23C176.43 104.617 176.823 103.955 177.214 103.317C177.66 102.591 178.121 101.839 178.352 101.013C178.469 100.595 178.571 100.045 178.222 99.7093C177.925 99.4234 175.583 99.1487 174.846 99.0234C174.027 98.885 173.21 98.7333 172.388 98.6114C172.059 98.562 164.642 97.2502 163.655 97.0526C162.779 96.8768 157.505 95.6749 157.067 95.5276C156.841 95.4518 156.377 95.2139 156.222 95.549C156.181 95.6367 156.163 95.7338 156.171 95.8305C156.187 95.8556 156.228 95.999 156.262 96.0495C156.384 96.2377 156.582 96.6295 156.603 96.7541C156.64 96.9829 156.655 97.2108 156.633 97.4415C156.601 97.8148 156.411 98.0132 156.191 98.298C155.765 98.8468 155.331 99.3896 154.92 99.9495C153.994 101.205 153.154 102.516 152.278 103.805C151.322 105.212 150.265 106.55 149.33 107.97C148.638 109.022 148.016 110.138 147.405 111.239C146.949 112.064 146.398 112.817 145.882 113.604C145.473 114.238 145.083 114.884 144.713 115.542C144.27 116.32 143.812 117.089 143.238 117.778C142.876 118.212 139.923 123.08 139.613 123.704C139.467 124.006 139.307 124.301 139.134 124.589C138.948 124.893 138.778 125.342 138.43 125.496C137.966 125.698 137.496 125.886 137.02 126.059C136.74 126.162 136.421 126.236 136.213 126.463C135.92 126.781 136.031 127.202 136.412 127.368C137.021 127.634 137.787 127.634 138.446 127.705C139.14 127.78 139.82 127.903 140.505 128.037C141.767 128.283 150.787 129.799 152.378 129.99C153.07 130.073 153.759 130.16 154.442 130.301C155.166 130.451 155.898 130.529 156.613 130.723C157.537 130.971 158.47 131.183 159.411 131.357C159.764 131.424 160.087 131.389 160.399 131.192C160.699 131.002 161.296 129.894 161.432 129.626C161.626 129.246 162.685 127.007 163.103 126.313C163.588 125.512 165.439 122.243 165.472 121.965V121.965ZM91.1181 66.6237C90.6033 68.0399 89.2151 68.9655 87.7572 69.2128C87.2314 69.3022 86.7553 69.2459 86.2326 69.2036C85.8135 69.1696 85.3848 69.2076 84.9703 69.1519C84.5354 69.0934 84.1006 69.0225 83.6621 68.9918C84.4355 68.0439 85.0903 66.9869 85.8032 65.9923C86.3966 65.1652 86.9743 64.2477 87.7969 63.6237C88.1495 63.3559 88.7194 63.0589 89.1665 63.1215C89.6902 63.1942 90.1328 63.3233 90.5688 63.6271C91.0116 63.9366 91.2996 64.3199 91.3683 64.8627C91.4446 65.4642 91.293 66.0504 91.1181 66.6237V66.6237ZM87.3717 72.2862C87.0897 73.0695 86.7267 73.8213 86.2887 74.5292C85.8173 75.2864 85.1176 75.9363 84.2625 76.2151C83.4471 76.48 82.4755 76.5636 81.6238 76.493C80.867 76.43 80.13 76.1955 79.3799 76.0796C80.0428 74.7251 80.8236 73.3952 81.6373 72.1267C82.0549 71.4752 82.3935 70.7681 82.8268 70.1313C82.9252 69.9872 82.9961 69.8028 83.1531 69.777C83.2698 69.758 83.4759 69.8258 83.5973 69.8434C84.1325 69.925 84.6693 69.9952 85.2074 70.0542C85.753 70.112 86.5003 70.1092 86.9217 70.506C87.4392 70.9938 87.5563 71.6201 87.3717 72.2862V72.2862ZM95.0012 65.7527C94.9601 65.455 94.9167 65.1458 94.7709 64.8852C94.6261 64.6146 94.4647 64.3533 94.2875 64.1028C93.9128 63.5919 93.2772 63.323 92.699 63.1184C91.9548 62.8552 88.2442 62.1977 87.7381 62.1036C87.1654 61.9958 86.5956 61.8788 86.0215 61.7831C85.2708 61.6585 84.5274 61.4966 83.772 61.4008C83.474 61.3627 82.3652 61.0889 82.7022 61.6626C82.7283 61.708 82.7744 61.7453 82.8051 61.8036C82.848 61.8815 82.8678 61.9841 82.8979 62.068C82.9424 62.1917 82.9898 62.3138 83.0379 62.4356C83.1549 62.7347 83.2016 62.8997 83.0474 63.1925C82.7788 63.7036 82.3595 64.1561 82.0097 64.6116C81.7941 64.8914 81.5793 65.1709 81.3648 65.4512C80.9939 65.935 80.6379 66.4235 80.3011 66.9315C79.7513 67.7608 79.1378 68.5414 78.583 69.3659C77.9832 70.2572 77.419 71.1809 76.7871 72.0502C76.2502 72.7872 75.6723 73.4952 75.1366 74.2328C74.9514 74.4887 74.7889 74.7607 74.6196 75.0273C74.3275 75.4865 73.803 75.5277 73.3491 75.7386C73.1559 75.8284 73.1024 76.0504 73.3069 76.167C73.4091 76.2256 73.6091 76.2394 73.7251 76.2584C74.1485 76.3282 74.5775 76.3585 75.0015 76.4181L75.3696 76.4684C75.4143 76.4746 75.4819 76.4705 75.5216 76.4893C75.6229 76.5378 77.0692 76.7862 77.3233 76.833C77.5597 76.8775 79.3481 77.1595 79.5714 77.1966C79.8602 77.2416 80.1475 77.2964 80.4326 77.3608C81.3073 77.5674 82.1652 77.7985 83.0548 77.9352C84.3251 78.1307 85.6393 78.4345 86.9304 78.3906C87.4571 78.3678 87.9814 78.3039 88.4983 78.1994C88.7759 78.145 89.0361 78.0579 89.2606 77.8818C89.3538 77.8094 89.583 77.6888 89.6547 77.5939C89.7252 77.5033 90.1011 77.057 90.2553 76.8916C90.4428 76.6902 90.5437 76.4141 90.6905 76.181C90.9121 75.8298 91.0759 75.4079 91.2129 75.0198C91.6618 73.7517 91.894 72.4401 91.1445 71.2357C90.8476 70.759 90.4299 70.4305 89.9279 70.187C90.3145 70.1758 90.7432 70.0515 91.11 69.9516C91.8026 69.7639 92.4791 69.4214 93.0775 69.0279C94.1273 68.3369 95.1923 67.1084 95.0006 65.7525L95.0012 65.7527ZM113.593 66.6619C113.76 66.5669 113.913 66.3794 113.857 66.1774C113.799 65.9676 113.574 65.9888 113.388 65.9446C112.892 65.8271 111.5 65.6099 111.389 65.5735C111.126 65.486 110.747 65.4496 110.481 65.374C110.073 65.2583 109.514 65.124 109.089 65.2375C108.721 65.3349 108.631 65.6529 108.907 65.9484C109.226 66.293 109.805 66.3279 110.169 66.6264C110.701 67.0625 109.942 68.0559 109.715 68.5203C109.47 69.0188 106.94 73.0494 106.323 73.9276C105.759 74.7317 105.233 75.5507 104.569 76.279C103.872 77.0444 103.1 77.7259 102.202 78.2462C101.402 78.7102 100.31 79.2054 99.384 78.8172C99.167 78.7222 98.969 78.5886 98.7996 78.4229C98.7228 78.3503 98.6476 78.2761 98.574 78.2004C98.4994 78.1251 98.3738 77.3874 98.4133 77.2481C98.4787 77.017 98.548 76.7867 98.621 76.5572C98.8864 75.7253 99.3321 74.7559 99.7186 73.9025C100.115 73.0272 100.527 72.1521 100.973 71.3011C101.556 70.1882 102.203 69.1078 102.829 68.0175C103.018 67.6859 103.232 67.3718 103.44 67.0523C103.653 66.7275 103.863 66.3269 104.208 66.1208C104.603 65.8842 106.321 65.8065 105.861 64.9797C105.698 64.6878 105.328 64.6437 105.034 64.5753C104.773 64.5148 104.504 64.4785 104.23 64.4107C103.389 64.2017 102.518 64.117 101.666 63.9591C101.04 63.8434 100.45 63.691 99.8187 63.6138C99.6081 63.5881 98.9925 63.4282 98.9294 63.7654C98.9135 63.8516 98.9591 63.9194 98.9456 64.0044C98.9316 64.0892 99.2537 64.4843 99.3901 64.6145C99.4522 64.6743 99.6387 64.8526 99.6671 64.8821C99.7146 64.9333 99.7482 65.0429 99.7637 65.1076C99.8032 65.2683 99.7782 65.2888 99.685 65.4406L99.7171 65.4006C99.093 66.3309 98.5147 67.2912 97.9844 68.2781C97.6628 68.8793 97.3641 69.4924 97.0328 70.0883C96.7824 70.5406 96.5066 70.98 96.2721 71.4408C95.7209 72.5285 95.1735 73.6553 94.7288 74.7908C94.4828 75.4182 94.2762 76.0908 94.3571 76.7721C94.4359 77.4331 94.7794 77.999 95.2775 78.4316C95.7041 78.8034 96.1896 79.0861 96.6985 79.3317C97.0268 79.4891 97.3565 79.5657 97.6801 79.7143C97.9346 79.8308 98.7176 80.0338 98.8399 80.0442C99.0142 80.0581 99.186 80.0988 99.3618 80.1092C99.7119 80.1299 100.109 80.1926 100.458 80.1552C101.137 80.0824 101.805 80.0328 102.434 79.7639C104.469 78.8972 106.789 76.0959 108.046 73.6816C108.434 72.9378 108.84 72.203 109.238 71.4659C109.634 70.7339 110.112 70.0489 110.473 69.2966C110.629 68.9718 110.781 68.6453 110.935 68.3192L111.199 67.7708C111.261 67.6424 111.425 67.2631 111.54 67.1736C111.725 67.0285 112.125 67.0896 112.367 67.0436C112.792 66.9647 113.214 66.8798 113.593 66.6625L113.593 66.6619ZM131.71 69.9617C131.551 69.5412 130.773 69.5281 130.412 69.4543C129.829 69.3353 129.246 69.2138 128.657 69.1265C128.124 69.0468 127.615 68.968 127.09 68.8428C126.69 68.7467 126.292 68.6448 125.888 68.567C124.284 68.2599 122.649 68.1244 121.043 67.8174C120.636 67.7396 120.229 67.6616 119.822 67.5823C119.037 67.429 118.255 67.3793 117.466 67.2825C116.967 67.2206 116.469 67.154 115.969 67.0987C115.757 67.0757 115.545 67.02 115.344 67.0998C115.14 67.1798 114.938 67.347 114.776 67.4922C114.571 67.6768 114.418 67.8702 114.259 68.0939C114.095 68.3244 113.853 68.4963 113.674 68.7269C113.459 69.0029 113.093 69.6548 113.673 69.7707C113.974 69.8313 114.297 69.5865 114.54 69.4408C114.778 69.2979 115.009 69.1453 115.237 68.9889C115.79 68.6107 116.305 68.2657 116.989 68.2191C117.617 68.175 118.261 68.277 118.877 68.3841C119.171 68.4352 119.464 68.4927 119.759 68.542C119.915 68.5681 120.541 68.5789 120.61 68.7068C120.514 69.1399 120.071 69.556 119.794 69.8918C119.439 70.3275 119.098 70.7752 118.774 71.2342C118.125 72.1405 117.497 73.0642 116.877 73.9913C116.291 74.8663 115.723 75.7536 115.174 76.6526C114.97 76.988 114.753 77.3151 114.547 77.6489C114.362 77.9477 113.076 79.8997 112.625 80.5754C112.327 81.0205 111.957 81.3987 111.435 81.5644C111.052 81.6859 110.577 81.679 110.282 81.9945C109.857 82.4492 110.344 82.815 110.785 82.9114C111.316 83.0275 111.881 83.0493 112.423 83.0936C113.36 83.1709 114.301 83.2941 115.224 83.4716C115.908 83.603 116.583 83.769 117.269 83.887C117.637 83.9503 117.996 84.0659 118.364 84.1211C118.88 84.199 119.328 83.8534 119.086 83.3041C118.947 82.9877 118.518 82.7255 118.434 82.4002C118.337 82.0178 118.612 81.5948 118.789 81.2834C119.051 80.8217 119.343 80.3862 119.628 79.9386C120.372 78.7701 121.093 77.5853 121.878 76.4441C122.873 74.9943 123.928 73.5791 124.863 72.0873C125.117 71.6816 125.384 71.2878 125.678 70.9101C125.854 70.6871 126.032 70.4668 126.214 70.2492C126.302 70.144 126.462 69.8466 126.597 69.7905C126.646 69.7697 126.729 69.8047 126.788 69.8184C127.083 69.8876 127.381 69.9479 127.679 70.0121C128.138 70.1117 128.585 70.2149 129.05 70.2805C129.312 70.3159 129.569 70.3791 129.818 70.4688C130.026 70.5459 130.066 70.6203 130.072 70.8477C130.082 71.2791 129.841 71.7018 129.785 72.1304C129.725 72.6044 130.121 72.977 130.415 72.4788C130.673 72.0403 130.957 71.609 131.215 71.1659C131.391 70.8626 131.861 70.3433 131.71 69.9617V69.9617ZM155.224 74.4266C155.319 74.6569 155.367 74.8851 155.386 75.1335C155.403 75.3527 155.351 75.6749 155.506 75.8557C155.865 76.2735 156.27 75.533 156.458 75.3034C156.712 74.9936 157.342 74.4111 157.231 73.9633C157.171 73.7249 156.96 73.7163 156.759 73.6689C156.488 73.6069 156.225 73.5105 155.956 73.4401C154.807 73.1414 144.013 71.4713 142.907 71.3145C142.704 71.2864 142.501 71.2581 142.299 71.2198C142.258 71.2118 142.166 71.2039 142.124 71.1842C142.078 71.1607 141.557 71.1011 141.427 71.1426C141.225 71.2072 141.054 71.2567 141.013 71.4989C140.967 71.7666 141.171 71.9852 141.376 72.1228C141.482 72.1933 141.812 72.2999 141.849 72.4087C141.896 72.5502 141.662 72.9308 141.603 73.0572C141.468 73.3467 141.33 73.6321 141.21 73.9288C140.427 75.837 139.298 77.5893 138.252 79.3581C137.955 79.8606 137.717 80.395 137.412 80.8915C137.114 81.3751 136.823 81.8618 136.532 82.3486C136.278 82.7723 136.021 83.2038 135.734 83.6052C135.572 83.8297 135.041 84.716 134.868 84.9344C134.665 85.1915 134.509 85.2607 134.195 85.3346C133.948 85.3923 133.693 85.4518 133.462 85.5598C133.042 85.7584 132.792 86.2165 133.322 86.4482C133.781 86.6494 134.31 86.7103 134.79 86.8456C135.135 86.9427 139.938 87.5641 139.965 87.5819C140.167 87.7053 140.41 87.6589 140.509 87.4256C140.665 87.0623 140.312 86.7792 140.05 86.5987C139.899 86.4937 139.771 86.4532 139.766 86.2752C139.76 86.062 140.025 85.7142 140.123 85.5317C140.374 85.0642 140.633 84.6036 140.896 84.1431C141.262 83.4995 141.649 82.8688 142.037 82.2382C142.455 81.5591 142.868 80.879 143.276 80.1936C143.38 80.0166 143.491 79.842 143.603 79.6699C143.648 79.6005 143.716 79.4386 143.782 79.3962C143.882 79.3313 144.082 79.4016 144.214 79.423C144.822 79.523 145.431 79.6073 146.038 79.7085C146.582 79.7981 147.128 79.8762 147.676 79.9427C148.043 80.0093 147.459 80.8015 147.76 80.9403C148.074 81.0853 148.333 80.6649 148.513 80.4763C148.721 80.258 149.753 78.9218 149.223 78.8734C148.902 78.8442 148.71 79.1832 148.018 79.1361C147.626 79.1095 147.333 79.0407 146.944 78.9947C146.06 78.8893 145.213 78.6634 144.358 78.4249C144.665 77.9509 144.986 77.4879 145.282 77.0067L145.248 77.05C145.779 76.2729 146.254 75.4595 146.769 74.672C147.156 74.0833 147.676 72.9567 148.489 72.9476C148.762 72.944 151.409 73.2786 151.942 73.3928C152.539 73.5198 155.07 73.9692 155.124 74.0311C155.16 74.0722 155.193 74.3521 155.224 74.4266V74.4266ZM166.711 77.7034C167.222 77.0394 168.156 77.2003 168.876 76.9623C169.136 76.8763 169.47 76.7186 169.537 76.4215C169.574 76.2588 169.506 76.1125 169.396 75.9999C169.349 75.9516 169.253 75.8642 169.178 75.8575C169.089 75.8497 168.632 75.8093 168.477 75.7692C168.287 75.7195 164.775 75.2495 163.892 75.1216C163.078 75.0042 160.6 74.4902 160.149 74.4976C160.021 74.5002 159.67 74.4022 159.513 74.4981C159.44 74.5639 159.41 74.6304 159.435 74.5918C159.387 74.6632 159.37 74.7057 159.382 74.8003C159.39 74.8633 159.459 74.9446 159.501 74.9875C159.693 75.1893 159.861 75.3797 160.07 75.5591C160.337 75.7887 160.519 75.8842 160.468 76.2801C160.416 76.6858 160.206 77.0863 160.021 77.4453C159.417 78.6174 156.644 83.217 155.896 84.4056C155.564 84.9311 154.023 87.6108 153.697 87.9211C153.814 87.8062 153.606 87.9833 153.552 88.016C153.439 88.0854 153.318 88.1427 153.199 88.1993C152.887 88.3483 152.561 88.4419 152.239 88.5631C151.944 88.6733 150.81 89.0047 151.315 89.5143C151.529 89.7311 154.515 90.1552 155.175 90.3262C155.812 90.4904 159.432 91.0161 159.733 91.0764C159.97 91.123 160.233 91.2139 160.428 91.0084C160.869 90.5391 160.088 90.2097 159.799 90.0016C159.75 89.9665 159.649 89.9136 159.61 89.8603C159.541 89.7663 159.546 89.7787 159.587 89.6462C159.612 89.5634 159.639 89.4814 159.669 89.4004C159.765 89.1465 159.892 88.9028 160.023 88.666C160.303 88.1568 160.559 87.6343 160.863 87.1388L160.835 87.1686C161.388 86.3578 163.032 83.4557 163.388 82.8516C163.894 81.991 164.379 81.1174 164.951 80.2985C165.546 79.4476 166.077 78.5239 166.711 77.704L166.711 77.7034ZM174.597 82.6755C175.232 81.7113 175.754 80.692 176.43 79.7536C176.709 79.3658 176.952 78.9547 177.219 78.5595C177.306 78.4317 177.388 78.3005 177.486 78.1797C177.535 78.1195 177.712 77.8743 177.799 77.8395C177.996 77.7612 178.224 77.8084 178.768 78.0297C179.278 78.1985 179.852 78.5388 180.107 79.05C180.364 79.5665 180.254 80.2367 180.097 80.7721C179.982 81.1636 179.756 81.4747 179.523 81.8005C179.219 82.2265 178.904 82.6285 178.525 82.9891C178.3 83.2019 178.063 83.4016 177.827 83.6006C177.711 83.698 177.595 83.7948 177.478 83.8895C177.412 83.9423 177.178 84.1793 177.099 84.1745C176.967 84.1656 176.663 83.8422 176.535 83.762C176.373 83.6603 176.175 83.5018 176 83.423C175.474 83.1838 174.989 83.0417 174.472 82.8617C174.517 82.8019 174.558 82.7398 174.597 82.6755V82.6755ZM182.237 92.9638C182.267 92.7949 182.237 92.5689 182.048 92.5136C181.85 92.4568 181.676 92.6643 181.574 92.8057C181.319 93.1609 181.313 93.5856 180.883 93.8182C180.556 93.9957 179.992 94.0453 179.638 94.0043C179.2 93.953 178.946 93.4867 178.789 93.0866C178.19 91.5591 178.635 90.1025 178.596 88.533C178.565 87.3397 178.192 86.2097 177.676 85.1485C178.472 85.067 179.267 84.9152 180.025 84.6472C180.761 84.387 181.528 84.1926 182.224 83.8286C183.377 83.2252 184.316 82.3119 184.572 80.9987L184.588 80.9064C184.548 81.1407 184.603 80.8059 184.605 80.7846C184.613 80.7162 184.618 80.6474 184.619 80.5785C184.618 80.4049 184.599 80.2318 184.562 80.0622C184.48 79.6676 184.335 79.2886 184.134 78.9395C183.754 78.3045 183.096 77.9642 182.424 77.7162C182.211 77.6372 182 77.5588 181.773 77.5266C181.655 77.5096 180.994 77.3919 180.785 77.3448C180.054 77.1828 172.189 75.9301 172.112 75.9001C171.961 75.8406 171.812 75.884 171.655 75.926C171.349 76.0071 171.419 76.2553 171.672 76.3852C171.924 76.5159 172.218 76.5774 172.477 76.7049C172.626 76.7774 172.773 76.7847 172.763 76.9512C172.756 77.0615 172.645 77.2266 172.598 77.3329C172.47 77.6236 172.321 77.8997 172.167 78.1772C171.707 79.003 171.188 79.8008 170.681 80.5965C170.245 81.2793 168.766 83.677 168.445 84.1878C168.147 84.6616 165.927 88.4762 165.468 89.2154C165.324 89.4471 165.178 89.6747 165.014 89.8921C164.873 90.0761 164.707 90.2392 164.52 90.3764C164.393 90.4684 164.313 90.4862 164.162 90.5612C164.01 90.637 163.681 90.7758 163.704 90.9514C163.717 91.0583 163.791 91.0798 163.869 91.1106C163.989 91.1588 164.154 91.1957 164.285 91.2282C164.536 91.2911 164.795 91.3268 165.051 91.3659C165.534 91.4388 167.752 91.9038 168.381 92.0557C168.707 92.1351 169.966 92.4089 170.075 91.9814C170.143 91.7124 169.836 91.583 169.71 91.3909C169.546 91.1419 169.517 90.9025 169.582 90.61C169.707 90.0465 170.115 89.567 170.396 89.073C171.374 87.356 172.53 85.7153 173.67 84.1058C173.701 84.0621 173.733 84.0185 173.763 83.9737C173.893 83.7892 173.892 83.7577 174.068 83.8928C174.346 84.105 174.592 84.4032 174.714 84.7378C174.984 85.4785 174.828 86.3143 174.776 87.0805C174.721 87.8983 174.718 88.7115 174.714 89.5306C174.711 90.3083 174.607 91.0883 174.656 91.8646C174.705 92.634 174.906 93.4089 175.38 94.0218C175.816 94.586 176.443 94.9809 177.084 95.2713C177.805 95.5989 178.536 95.6391 179.313 95.4966C179.995 95.372 180.798 95.1509 181.334 94.6843C181.872 94.217 182.107 93.6363 182.237 92.9636L182.237 92.9638Z" fill="black"/>
<path fill-rule="evenodd" clip-rule="evenodd" d="M198.14 87.001C198.473 86.5073 198.799 86.0158 199.102 85.5039C199.246 85.2614 199.386 85.0129 199.519 84.7638C199.613 84.5888 199.68 84.3553 199.45 84.2454C199.216 84.1336 199.118 84.3451 198.981 84.4787C198.785 84.6712 198.073 84.9101 197.86 84.6135C197.769 84.4863 197.79 84.1745 197.777 84.016C197.751 83.7127 197.726 83.4081 197.673 83.1078C197.546 82.3952 197.323 81.693 196.874 81.1079C196.629 80.7908 195.911 80.366 195.537 80.216C195.05 80.021 193.763 79.6462 193.404 79.5899C192.903 79.5111 191.947 79.458 191.446 79.5462C190.96 79.6314 189.44 80.2353 189.041 80.5694C188.235 81.2444 187.784 82.1213 187.612 83.1483C187.41 84.3564 187.602 85.6127 187.99 86.7688C188.364 87.8837 188.772 89.0492 189.12 90.1331L189.16 90.2664C189.099 90.0832 189.163 90.2786 189.171 90.3096C189.192 90.3878 189.214 90.467 189.234 90.5459C189.273 90.7008 189.309 90.8554 189.332 91.013C189.376 91.3068 189.376 91.6001 189.345 91.8939C189.278 92.5293 189.137 93.1413 188.806 93.6934C188.515 94.1788 188.073 94.636 187.466 94.6391C186.789 94.6423 186.324 94.2837 185.917 93.7798C185.229 92.9274 184.738 91.8778 184.49 90.8166C184.271 89.879 184.269 88.8869 184.005 87.9619C183.943 87.7449 183.873 87.6484 183.655 87.7498C183.514 87.8154 182.886 88.759 182.793 88.8696C182.22 89.5399 181.715 90.331 181.272 91.0897C181.131 91.332 180.984 91.5715 180.835 91.8092C180.715 91.999 180.646 92.2044 180.526 92.3876C180.439 92.5197 180.318 92.6326 180.378 92.8043C180.475 93.0764 180.745 92.9939 180.922 92.8794C181.149 92.7342 181.369 92.5764 181.593 92.4274C181.994 92.1611 182.619 91.6901 183.137 91.7685C183.317 91.7961 183.772 92.4752 183.941 92.6861C184.142 92.9361 184.281 93.3004 184.433 93.5859C184.672 94.0326 184.995 94.4563 185.308 94.8541C185.496 95.0936 186.315 95.9429 186.462 96.0128C186.778 96.1611 187.113 96.3146 187.439 96.4366C188.431 96.8065 189.631 96.6863 190.66 96.5662C191.746 96.44 192.821 95.9027 193.431 94.9871C194.092 93.9939 194.457 92.8026 194.287 91.603C194.205 91.0255 193.989 90.4874 193.91 89.9127C193.821 89.2665 193.653 88.6383 193.497 88.0059C193.204 86.8207 192.879 85.6742 192.725 84.4617C192.652 83.888 192.497 83.2107 192.629 82.6368C192.757 82.076 193.209 81.5728 193.779 81.523C194.027 81.5017 194.41 81.4871 194.63 81.6085C194.914 81.7655 195.167 81.9476 195.388 82.1833C195.804 82.6295 196.18 83.1244 196.489 83.6577C197.027 84.5857 197.029 85.7025 196.935 86.7369C196.905 87.0508 196.862 87.3626 196.842 87.6781C196.831 87.8533 196.775 88.0953 196.851 88.2561C197.023 88.6183 197.42 88.0978 197.538 87.9134C197.733 87.6057 197.937 87.3025 198.14 87.001V87.001ZM189.036 90.1396L189.023 90.1012L189.036 90.1396ZM218.254 84.7661C218.218 84.4384 217.891 84.3411 217.619 84.2804C217.182 84.1845 216.74 84.0985 216.301 84.0097C215.431 83.8343 211.356 83.0877 210.17 82.912C209.138 82.7592 205.269 82.0329 204.342 81.9803C203.65 81.941 202.96 81.8242 202.271 81.7482C201.968 81.7144 201.81 81.7585 201.548 81.9228C201.363 82.0389 201.195 82.1953 201.044 82.3529C200.893 82.5102 200.712 82.8249 200.594 82.9485C200.458 83.0911 200.087 83.5214 199.989 83.6926C199.788 84.0393 199.692 84.2518 200.056 84.4116C200.398 84.5621 200.813 84.2316 201.093 84.06C201.468 83.8304 201.82 83.5667 202.191 83.3321C202.933 82.8627 203.685 82.8409 204.532 82.9362C204.935 82.9817 206.853 83.2282 207.022 83.3349C207.203 83.4493 206.886 83.7929 206.776 83.942C206.506 84.3091 206.2 84.6467 205.919 85.0045C205.398 85.6687 204.918 86.3728 204.442 87.0696C203.52 88.4193 202.6 89.7747 201.749 91.1693C201.593 91.4252 201.43 91.6741 201.267 91.9248C201.133 92.1273 199.086 95.4418 198.61 95.8421C198.354 96.0581 198.052 96.203 197.729 96.2817C197.409 96.3599 197.042 96.3945 196.789 96.6306C196.478 96.9193 196.568 97.3066 196.929 97.4791C197.273 97.6442 197.702 97.6504 198.074 97.6891C198.851 97.7696 202.613 98.4739 203.773 98.6799C204.234 98.7612 205.286 99.1035 205.589 98.5464C205.782 98.1917 205.514 97.8247 205.298 97.5646C205.165 97.4023 204.95 97.2376 204.926 97.0245C204.864 96.4887 205.275 95.9506 205.544 95.5037C205.745 95.17 205.972 94.8516 206.181 94.5225C206.824 93.5149 207.437 92.4782 208.116 91.4943C208.283 91.2525 208.448 91.0084 208.617 90.7689C209.061 90.1392 209.477 89.48 209.938 88.8643C210.841 87.6589 211.563 86.3318 212.52 85.1654C212.65 85.0069 212.781 84.8494 212.912 84.6923C212.939 84.6588 213.046 84.4917 213.098 84.4695C213.252 84.4041 215.718 84.9752 216.058 85.068C216.418 85.1672 216.606 85.2137 216.584 85.6196C216.566 85.9532 216.406 86.2995 216.333 86.6265C216.276 86.8827 216.21 87.3495 216.564 87.4137C216.875 87.4695 217.033 86.9937 217.155 86.775C217.36 86.406 218.246 85.1064 218.255 84.7664L218.254 84.7661ZM213.14 98.8704C213.14 97.7384 211.916 96.9632 210.801 97.1329C209.787 97.2877 208.787 98.8105 210.162 99.3378C210.293 99.3879 210.766 99.4074 210.799 99.5413C210.849 99.7353 210.322 99.9229 210.194 99.9793C209.734 100.183 209.256 100.168 208.773 100.289C208.599 100.332 208.369 100.459 208.488 100.664C208.58 100.822 208.94 100.93 209.104 100.988C209.54 101.144 210.001 101.215 210.464 101.199C211.818 101.144 213.131 100.196 213.14 98.8704V98.8704ZM195.139 134.38C194.245 133.811 193.034 134.086 192.25 134.702C191.816 135.043 191.443 135.462 191.482 136.039C191.513 136.514 191.729 136.955 192.114 137.245C192.903 137.837 194.322 137.662 194.959 136.94C195.555 136.266 196.128 135.008 195.139 134.38V134.38ZM194.776 126.821C194.793 126.683 194.74 126.549 194.587 126.516C194.472 126.492 194.051 125.899 193.277 126.919C192.553 127.874 188.159 130.831 186.878 131.462C186.141 131.828 185.383 132.151 184.608 132.429C183.906 132.679 183.217 132.88 182.462 132.858C181.771 132.837 181.074 132.723 180.394 132.608C179.538 132.464 177.869 132.205 177.896 132.196C177.559 132.06 177.012 131.949 176.708 131.63C176.58 131.495 176.594 131.053 176.594 130.874C176.595 130.079 177.148 129.34 177.431 128.616C177.66 128.031 177.985 127.49 178.276 126.933C178.673 126.174 182.337 120.246 182.578 119.787C182.824 119.323 183.099 118.87 183.365 118.417C183.437 118.293 183.497 118.113 183.621 118.077C183.747 118.039 183.965 118.099 184.104 118.107C184.63 118.137 185.15 118.216 185.671 118.291C186.131 118.357 186.586 118.459 187.033 118.583C187.219 118.634 187.396 118.659 187.521 118.788C187.678 118.948 187.73 119.161 187.715 119.381C187.685 119.863 187.482 120.386 187.33 120.843C187.212 121.198 187.057 121.538 186.936 121.891C186.823 122.224 186.568 122.683 186.736 123.027C186.911 123.387 187.319 123.33 187.59 123.129C188.183 122.69 188.568 121.87 188.952 121.255C189.413 120.519 189.886 119.794 190.352 119.062C191.116 117.86 192.056 116.731 192.669 115.441C192.801 115.163 193.09 114.597 192.931 114.287C192.739 113.914 192.259 114.231 192.033 114.385C191.234 114.926 190.689 115.737 189.975 116.37C189.625 116.682 189.187 116.964 188.727 117.069C188.255 117.176 187.791 117.072 187.327 116.973C186.729 116.845 186.124 116.747 185.524 116.63C185.195 116.567 184.865 116.522 184.533 116.479C185.324 115.336 188.913 110.456 189.908 109.127C190.353 108.531 190.769 107.912 191.223 107.322C191.696 106.707 192.134 106.042 192.651 105.465C192.919 105.164 193.699 104.314 193.933 104.189C194.032 104.136 194.633 104.158 194.749 104.145C194.904 104.128 195.136 104.205 195.288 104.229C196.108 104.358 196.931 104.484 197.747 104.634C198.546 104.776 199.334 104.971 200.107 105.218C201.118 105.547 202.291 106.064 202.68 107.144C202.85 107.618 202.845 108.111 202.847 108.608C202.848 109.14 202.799 109.664 202.633 110.172C202.368 110.984 202.07 111.779 201.859 112.607C201.76 112.999 200.973 114.699 201.868 114.668C202.376 114.651 202.701 113.975 202.988 113.641C203.296 113.283 203.533 112.866 203.754 112.435C204.181 111.6 204.764 110.85 205.303 110.086C205.734 109.473 206.127 108.812 206.518 108.173C206.964 107.447 207.425 106.696 207.656 105.869C207.773 105.451 207.875 104.901 207.526 104.566C207.229 104.28 204.888 104.005 204.15 103.88C203.33 103.742 202.514 103.59 201.692 103.468C201.362 103.419 193.947 102.106 192.959 101.908C192.083 101.733 186.809 100.531 186.371 100.384C186.145 100.309 185.681 100.07 185.526 100.405C185.485 100.493 185.467 100.59 185.475 100.687C185.491 100.712 185.532 100.855 185.566 100.906C185.688 101.094 185.886 101.486 185.907 101.61C185.944 101.839 185.959 102.067 185.937 102.298C185.905 102.671 185.716 102.87 185.495 103.154C185.07 103.703 184.636 104.246 184.224 104.805C183.299 106.061 182.458 107.373 181.582 108.662C180.626 110.068 179.569 111.407 178.634 112.826C177.942 113.879 177.32 114.994 176.71 116.096C176.253 116.92 175.702 117.673 175.187 118.46C174.777 119.094 174.387 119.741 174.017 120.399C173.574 121.176 173.116 121.945 172.542 122.634C172.18 123.069 169.227 127.937 168.917 128.56C168.768 128.861 168.614 129.159 168.438 129.446C168.252 129.75 168.082 130.198 167.734 130.352C167.27 130.554 166.799 130.742 166.324 130.915C166.044 131.019 165.725 131.092 165.517 131.319C165.224 131.637 165.336 132.058 165.716 132.225C166.325 132.491 167.091 132.49 167.75 132.561C168.443 132.636 169.124 132.76 169.809 132.893C171.07 133.14 180.091 134.655 181.682 134.846C182.374 134.929 183.063 135.016 183.746 135.158C184.471 135.308 185.202 135.385 185.917 135.579C186.841 135.827 187.774 136.038 188.715 136.213C189.068 136.28 189.391 136.245 189.703 136.048C190.003 135.858 190.6 134.75 190.736 134.483C190.93 134.102 191.989 131.863 192.408 131.169C192.892 130.368 194.742 127.1 194.776 126.822" fill="black"/>
</g>
<defs>
<clipPath id="clip0_1_669">
<rect width="192.001" height="129.104" fill="white" transform="translate(48.8408 0.181519) rotate(21.9612)"/>
</clipPath>
</defs>
</svg>
