<svg width="371" height="370" viewBox="0 0 371 370" fill="none" xmlns="http://www.w3.org/2000/svg">
<path fill-rule="evenodd" clip-rule="evenodd" d="M287.611 128.497C275.132 124.523 262.122 123.589 249.19 122.194C253.311 121.285 257.772 120.07 261.969 119.603C265.831 119.18 268.129 120.771 271.764 122.037C278.251 124.302 285.499 127.054 291.139 129.685C289.97 129.27 288.793 128.874 287.611 128.497V128.497ZM269.838 133.462C256.147 130.904 242.131 130.348 228.459 127.674C231.849 126.637 233.77 125.732 237.372 126.076C242.727 126.584 248.146 127.681 253.378 128.846C260.972 130.537 268.634 132.361 276.032 134.76C273.977 134.283 271.912 133.85 269.838 133.462V133.462ZM270.497 136.134C269.56 136.513 266.276 135.229 265.215 135C266.237 135.195 269.898 136.376 270.497 136.134ZM243.238 135.853C232.524 135.182 221.682 134.846 210.95 134.902C212.877 134.182 214.717 133.279 216.594 132.438C221.727 130.137 222.619 130.503 227.743 132.015C234.352 133.967 241.123 135.078 247.899 136.208C246.347 136.064 244.793 135.946 243.237 135.854L243.238 135.853ZM230.735 142.031C215.945 143.152 201.356 144.945 186.592 146.598C189.744 145.325 192.774 143.705 195.786 142.14C200.434 139.728 204.002 140.068 209.184 140.066C214.687 140.063 220.092 140.709 225.563 141.331C226.913 141.486 232.199 141.919 230.735 142.031V142.031ZM207.947 130.793C215.843 123.125 224.902 115.98 234.183 110.007C240.073 106.216 246.479 101.935 253.401 105.222C241.953 105.698 226.997 116.081 220.221 124.98C219.896 125.401 219.399 125.692 219.06 126.107C217.788 127.651 219.173 127.819 218.308 128.769C218.207 128.881 213.582 130.769 214.196 130.517C211.058 131.811 207.847 132.897 204.705 134.174C205.768 133.029 206.847 131.901 207.948 130.792L207.947 130.793ZM251.995 112.421C244.223 118.921 235.791 122.381 226.429 125.642C234.979 120.144 243.551 115.647 252.948 111.709C252.63 111.946 252.312 112.183 251.996 112.422L251.995 112.421ZM261.667 114.651C263.287 114.132 264.01 114.266 264.37 116.19C260.184 116.031 258.196 116.605 254.24 117.565C256.645 116.423 259.127 115.449 261.667 114.651V114.651ZM266.804 115.7C266.513 115.172 266.388 114.164 266.185 113.649C269.293 113.598 271.932 114.255 274.573 115.885C273.699 115.893 267.02 116.664 266.804 115.699L266.804 115.7ZM140.773 187.851C163.494 185.045 185.285 184.312 208.104 186.536C190.913 188.043 173.649 191.498 156.732 194.852C143.15 197.545 129.377 198.999 115.756 201.433C118.28 198.806 120.64 196.023 123.211 193.434C127.677 188.939 134.368 188.652 140.773 187.851V187.851ZM218.888 194.542C222.99 194.122 227.082 193.613 231.162 193.015C235.597 192.36 242.671 189.436 247.134 190.317C222.769 197.55 196.441 200.884 171.394 204.96C160.983 206.655 150.384 209.132 140.299 212.275C125.738 216.81 109.314 216.788 95.4166 223.159C99.6667 218.704 104.322 212.334 109.164 208.711C112.683 206.077 118.52 205.858 122.707 205.305C129.601 204.396 136.528 203.689 143.439 202.945C168.599 200.234 193.718 197.174 218.888 194.542V194.542ZM91.4773 218.667C89.4332 220.917 87.4436 223.216 85.5103 225.561C89.0195 209.101 88.8619 191.743 90.8387 175.034C91.9566 165.585 93.0056 156.031 94.5089 146.646C95.8382 138.358 96.1922 127.066 100.636 119.906C103.952 122.986 106.403 126.255 105.744 130.732C104.897 136.49 102.417 142.023 101.263 147.735C99.9675 154.154 99.09 160.687 98.2889 167.185C97.0564 177.179 96.7687 187.345 97.2968 197.393C97.4395 200.217 97.621 203.04 97.8412 205.859C97.9379 207.09 98.575 209.186 98.3035 210.337C97.6402 213.165 93.6156 216.299 91.4773 218.667V218.667ZM115.98 150.136C117.928 140.887 119.115 130.141 123.166 121.471C125.415 116.653 127.578 114.938 130.937 120.142C133.335 123.856 129.568 132.008 128.381 136.676C125.014 149.921 123.236 163.511 121.008 176.979C120.426 180.508 120.254 183.998 119.878 187.531C119.565 190.46 119.646 190.286 117.959 192.491C116.874 193.916 115.163 195.126 113.855 196.376C110.426 199.653 106.949 202.887 103.556 206.202C108.719 187.73 112.04 168.882 115.98 150.136V150.136ZM370.001 192.144C366.872 187.983 362.904 184.231 358.844 181.015C353.221 176.556 346.335 173.948 340.719 169.66C335.996 166.049 332.095 161.245 327.268 157.59C319.6 151.788 311.709 146.962 302.73 143.476C314.165 147.378 325.132 152.075 334.293 160.172C335.067 160.858 341.777 169.449 343.165 168.628C344.115 168.074 340.089 161.856 339.25 160.407C333.06 149.759 320.357 142.946 310.319 136.108C298.982 128.386 286.602 124.053 273.686 119.782C285.421 120.43 295.308 123.444 305.138 130.047C309.973 133.292 314.447 137.084 319.431 140.098C323.849 142.77 328.093 145.234 331.906 148.819C336.177 152.839 339.608 157.218 342.442 162.353C343.507 164.285 348.709 175.978 348.849 168.55C348.918 164.89 344.296 159.674 342.425 157.03C339.27 152.575 335.611 148.562 331.781 144.682C325.266 138.087 319.048 131.243 311.315 126.041C306.917 123.08 302.311 120.735 297.279 119.044C293.393 117.736 289.404 116.798 285.326 116.336C281.454 115.898 281.081 115.944 278 113.944C275.352 112.223 273.092 110.382 270.129 109.155C267.11 107.903 264.54 107.724 262.294 106.016C259.644 103.997 258.616 101.629 255.197 100.365C252.053 99.2015 248.836 99.4576 245.556 99.7195C234.709 100.584 223.696 103.334 214.721 109.75C206.79 115.422 201.398 124.473 197.564 133.297C195.447 138.167 196.884 137.984 191.199 140.783C185.222 143.727 179.28 146.619 173.465 149.903C183.052 137.986 191.387 124.792 201.899 113.624C207.519 107.658 213.031 101.596 218.65 95.6339C220.309 93.8771 233.411 81.2225 226.052 81.6714C224.35 81.7742 221.791 84.0486 220.227 84.7953C217.106 86.2933 214.007 87.6207 211.122 89.5783C206.121 92.9719 202.039 97.194 197.95 101.585C187.357 112.96 177.809 125.126 172.921 140.061C171.763 143.595 171.34 147.579 169.526 150.822C168.249 153.11 166.749 153.9 164.155 155.59C159.706 158.483 155.382 161.458 151.169 164.693C161.942 148.738 168.891 130.883 177.379 113.704C188.297 91.6155 193.292 66.8261 202.475 44.0042C204.256 39.5776 206.426 34.7066 209.415 30.9388C210.324 29.7929 213.197 28.0751 213.448 26.6304C214.111 22.8189 211.529 23.8422 209.634 24.9383C204.989 27.6234 200.479 33.6798 197.305 37.7623C192.685 43.7002 188.007 50.1417 184.005 56.5394C170.22 78.5744 161.08 103.58 153.489 128.329C149.917 139.963 146.233 151.789 144.475 163.854C143.628 169.679 144.591 169.835 139.724 173.822C134.641 177.988 129.783 182.408 124.74 186.615C129.336 177.178 132.075 165.475 135.391 155.463C138.864 144.975 142.813 134.645 146.342 124.173C152.082 107.132 156.377 89.6844 160.51 72.2006C162.705 62.9048 164.762 53.6018 166.643 44.2404C169.061 32.2106 171.52 18.3199 176.912 7.223C177.716 5.5726 180.984 -2.09567 176.256 0.545489C174.09 1.75293 171.523 9.65466 170.417 11.7851C164.153 23.8843 158.876 36.1693 154.162 48.9456C145.805 71.5999 139.94 94.8151 133.319 117.981C130.009 113.462 123.136 108.487 117.197 110.41C111.863 112.139 109.239 119.732 107.561 124.489C107.374 121.198 103.337 115.06 100.19 114.85C98.4012 114.73 95.3191 116.424 93.8233 117.132C90.1256 118.88 85.9254 121.092 83.6192 124.533C78.8928 131.591 79.7894 142.67 78.9497 150.839C76.4488 175.202 76.8969 198.727 79.651 222.991C80.2802 228.543 81.0407 231.119 77.8818 235.495C74.2737 240.495 70.7952 245.411 67.2426 250.105C68.3842 247.931 67.3525 241.286 67.3394 238.968C67.3027 232.758 67.3663 226.601 67.6887 220.396C68.3501 207.616 67.6643 194.408 67.0204 181.62C65.6948 155.272 65.8153 129.26 66.7036 102.919C66.8896 97.3681 66.7647 91.8517 66.7307 86.304C66.7164 84.0136 67.4743 78.4028 63.8364 79.7442C62.7801 80.1332 62.0027 84.2298 61.696 85.2688C58.8622 94.8461 57.9725 105.207 56.6746 115.043C55.4954 123.989 54.418 132.95 53.6706 141.94C52.2347 159.211 52.7089 175.982 52.7963 193.282C52.8697 207.532 54.4148 223.026 57.0491 236.173C58.2845 242.339 60.4316 249.001 61.0571 255.215C61.4366 258.957 59.2466 260.344 56.732 263.742C54.1872 267.178 51.6737 270.641 49.2451 274.16C49.4793 268.768 47.9424 263.193 47.5817 257.797C47.2794 253.289 46.993 248.804 46.587 244.301C46.2643 240.755 45.9602 237.205 45.646 233.656C44.0266 215.387 42.445 197.159 39.4558 179.058C34.8604 151.262 29.8477 122.696 30.0335 94.4189C30.0704 89.0221 30.2448 83.6291 30.3072 78.231C30.3532 74.1624 29.9791 70.126 29.9554 66.0631C29.9428 63.9911 30.887 59.9843 30.196 57.9196C28.1964 51.9457 26.4642 58.621 26.4086 61.3644C26.3804 62.8099 26.2939 64.2512 26.2718 65.6961C26.1382 74.7752 25.3566 83.7299 24.9083 92.7987C24.2651 105.875 24.8396 118.886 25.274 131.956C25.7482 146.193 25.3919 160.528 26.9223 174.712C28.8961 192.996 32.849 211.173 35.3298 229.409C36.4093 237.35 37.9151 245.204 38.7322 253.182C39.4942 260.638 42.1406 267.968 43.7525 274.857L43.7435 274.329C44.3682 277.257 45.3485 278.72 44.4586 281.407C43.8314 283.294 42.1104 285.278 41.0797 287.012C38.8815 290.7 36.7716 294.431 34.661 298.169C36.5316 288.681 33.9961 276.71 31.9889 267.39C29.7704 257.078 27.0668 246.515 23.9019 236.458C21.4408 228.638 19.4043 220.95 18.661 212.809C17.6708 201.967 14.7222 191.54 13.1369 180.798C11.6413 170.657 9.12244 160.615 6.9758 150.576C6.4922 148.316 4.33378 137.505 0.822214 142.382C-0.0435921 143.585 1.01761 146.78 1.15364 148.024C1.48784 151.104 1.69609 154.135 1.83431 157.226C2.73045 176.858 6.84159 196.786 10.064 216.128C12.1231 228.486 14.3036 240.889 17.3128 253.052C19.6563 262.522 20.9219 272.361 23.5213 281.698C24.7681 286.177 26.0345 290.755 28.0269 294.96C29.7602 298.62 31.5076 299.642 30.8961 303.586C30.0206 309.224 25.2203 315.077 23.0541 320.536C21.2825 324.999 19.4758 329.469 17.7878 333.964C15.4296 340.26 13.2197 346.666 11.1508 353.061C9.95002 356.765 7.62076 361.546 7.40266 365.313C7.07035 371.035 10.3091 369.398 12.0099 365.571C13.154 362.995 14.0675 360.224 15.1436 357.605C23.0394 338.414 30.269 317.838 42.0587 300.619C46.9766 293.428 60.5709 291.695 68.5471 289.188C87.7349 283.149 108.492 282.353 128.401 280.146C144.455 278.369 160.248 276.736 175.964 272.788C178.26 272.213 220.153 259.879 219.102 257.728C219.689 258.935 173.27 269.265 169.553 269.57C157.895 270.52 146.275 270.775 134.592 271.269C105.37 272.506 76.627 273.208 50.0745 287.015C53.4251 281.745 57.4332 271.796 63.3148 269.756C74.6506 265.818 86.5975 263.275 98.0178 259.435C109.89 255.449 122.081 252.778 134.023 249.085C145.951 245.395 157.853 241.572 169.962 238.469C182.134 235.35 194.708 232.099 207.356 232.501C212.224 232.656 217.106 233.087 221.953 233.545C223.784 233.718 238.355 236.412 230.476 233.066C225.374 230.896 218.694 230.73 213.228 229.934C206.96 229.024 200.952 228.216 194.618 228.266C180.824 228.372 166.967 231.606 153.634 234.807C137.676 238.633 121.065 242.432 105.832 248.591C91.8718 254.236 77.8397 259.656 63.8786 265.231C66.4174 261.345 69.1174 257.576 71.7588 253.759C73.0416 251.902 74.3951 248.889 76.2164 247.621C78.9962 245.684 84.8453 245.181 88.0739 244.106C101.064 239.787 114.114 234.714 127.425 231.501C148.828 226.333 170.739 223.128 192.275 218.529C204.844 215.848 218.153 213.482 231.004 213.71C235.838 213.798 240.678 213.622 245.425 214.643C247.104 215.003 249.218 215.933 250.947 216.129C256.122 216.709 252.283 214.22 249.144 213.132C224.265 204.519 196.842 211.405 171.764 214.909C155.178 217.225 138.805 219.587 122.969 225.292C108.378 230.547 94.4286 237.556 79.5951 242.171C83.4829 236.646 86.949 230.925 93.1607 227.885C100.035 224.524 107.28 223.062 114.782 221.788C130.379 219.13 145.872 215.728 161.519 213.413C175.894 211.29 190.242 209.406 204.491 206.507C218.364 203.682 232.156 202.031 245.398 196.691C249.59 195 254.673 192.069 259.149 191.813C264.951 191.482 271.976 193.22 277.665 194.082C291.521 196.177 305.904 198.337 318.713 204.202C331.281 209.958 339.815 219.004 349.436 228.461C352.467 231.445 355.449 234.479 358.472 237.471C359.145 238.138 363.162 243.146 363.99 243.21C369.114 243.594 359.448 233.438 357.78 231.357C346.253 216.976 333.779 204.982 316.821 197.147C302.369 190.469 287.26 186.125 271.5 183.902C271.54 181.053 283.151 180.911 283.469 177.96C283.891 174.025 275.766 177.963 274.156 178.447C271.098 179.365 268.124 180.513 265.051 181.382C257.995 183.376 250.189 180.92 243.022 180C234.38 178.896 225.625 178.172 216.934 177.649C188.163 175.913 160.559 176.868 132.615 184.577C137.629 180.185 142.86 176.011 148.16 171.969C150.224 170.396 151.797 168.955 154.135 168.217C158.083 166.969 162.771 167.527 166.887 167.124C183.159 165.537 199.357 163.753 215.719 163.251C242.645 162.424 270.72 167.258 296.255 175.818C308.713 179.996 320.935 184.058 331.752 191.749C334.257 193.527 336.484 195.568 338.76 197.623C339.701 198.472 345.445 204.649 345.737 204.616C348.229 204.35 336.675 191.565 334.996 189.932C312.435 168.003 283.16 163.017 253.267 158.615C222.007 154.009 190.63 156.455 159.834 163.404C165.984 159.567 172.028 152.991 178.931 150.76C184.175 149.064 190.831 149.386 196.138 148.842C211.525 147.26 227.654 149.947 243.076 151.039C260.497 152.271 277.42 154.506 294.263 159.146C302.881 161.521 311.274 164.035 319.682 167.119C326.346 169.563 331.783 171.068 337.174 175.534C339.349 177.352 345.82 182.18 349.321 185.462C350.749 186.803 352.228 189.635 353.842 190.309C359.854 192.817 351.875 183.021 350.565 181.321C355.344 184.176 359.805 187.482 364.048 191.001C364.887 191.7 365.69 192.233 366.54 192.87C367.537 193.621 368.06 195.812 369.768 195.082C371.159 194.484 370.665 193.051 370.001 192.144" fill="#012A32"/>
</svg>
