<svg width="423" height="408" viewBox="0 0 423 408" fill="none" xmlns="http://www.w3.org/2000/svg">
<path fill-rule="evenodd" clip-rule="evenodd" d="M376.911 353.174C359.269 322.171 335.606 293.464 312.84 266.119C319.567 267.96 328.443 266.525 334.575 263.473C341.465 260.046 344.953 254.085 347.74 247.196C348.136 246.219 350.725 236.146 352.616 236.688C356.097 237.69 357.101 259.898 357.476 262.613C358.815 272.302 360.885 281.795 363.055 291.33C367.736 311.882 372.825 332.492 376.911 353.174ZM301.567 247.93C296.647 248.276 292.929 241.318 289.757 237.724C295.069 237.519 317.738 231.249 320.447 236.661C324.849 245.465 306.051 247.604 301.567 247.93ZM190.95 80.1112C190.929 83.0479 190.928 94.38 186.347 90.866C183.247 88.4857 181.557 77.827 180.596 74.5575C178.635 67.8958 175.622 59.6892 175.966 52.6586C176.619 39.3528 185.347 48.431 187.338 55.5287C189.535 63.3543 190.987 71.9537 190.95 80.1112ZM225.956 138.401C231.745 134.773 229.421 141.544 227.245 144.773C221.125 153.859 219.771 143.333 225.956 138.401ZM212.916 107.283C211.691 100.682 212.299 91.724 214.184 85.413C215.664 80.4558 220.399 75.839 223.303 82.1727C225.715 87.431 221.153 101.252 218.721 106.426C216.744 110.633 214.028 114.208 212.916 107.283ZM187.767 109.305C188.85 121.973 177.823 126.61 178.184 112.147C178.407 103.298 185.832 96.7624 187.767 109.305ZM211.085 185.649C211.425 190.905 200.378 209.297 199.582 199.149C199.355 196.255 210.498 180.912 211.085 185.649ZM178.69 167.92C174.91 170.371 164.528 178.558 160.599 176.902C154.32 174.253 161.489 166.83 164.279 164.921C167.327 162.833 175.68 157.724 179.881 158.365C187.586 159.545 182.586 165.15 178.69 167.92ZM121.937 92.1727C112.564 96.1679 109.268 85.0076 107.245 78.3435C105.922 73.9842 101.247 64.8683 106.158 61.7565C114.984 56.1566 124.835 84.9475 121.937 92.1727ZM153.003 93.4863C151.572 89.0142 150.456 84.4458 149.055 79.966C148.22 77.302 143.854 67.9197 144.38 65.6897C146.044 58.6146 151.759 62.1481 155.082 67.3347C158.492 72.6597 162.057 83.7684 161.698 89.8783C161.365 95.5454 156.074 102.131 153.003 93.4863ZM135.714 46.4569C133.254 38.6774 138.573 32.1368 144.671 40.8045C151.571 50.607 141.087 60.9695 135.714 46.4569ZM149.205 183.969C149.562 191.084 125.442 201.809 119.99 198.531C112.812 194.217 127.553 188.849 131.65 186.719C135.112 184.923 148.195 175.812 149.205 183.969ZM106.453 173.362C100.332 175.085 94.0571 177.478 87.7609 178.343C79.1133 179.527 79.1867 174.674 85.6572 169.575C91.3119 165.119 101.887 164.042 108.635 161.344C114.026 159.188 129.663 146.839 133.565 150.663C142.357 159.279 112.232 171.678 106.453 173.362ZM108.086 201.09C108.33 210.763 82.7176 214.003 76.9905 214.568C80.8335 211.834 106.335 187.754 108.086 201.09ZM59.6162 152.323C42.2578 151.745 59.6972 139.108 65.5477 136.773C69.7941 135.077 79.7868 131.308 84.1068 134.861C95.4426 144.185 64.0812 152.493 59.6162 152.323ZM61.5871 116.975C61.9847 110.979 90.8743 101.944 92.5067 107.431C93.7921 111.752 62.9728 129.557 61.5871 116.975ZM103.146 124.209C114.607 116.357 130.123 123.735 112.94 132.84C109.568 134.624 100.742 139.443 97.0017 136.696C91.719 132.817 100.111 126.167 103.146 124.209ZM419.311 150.607C416.47 145.577 412.379 138.55 407.673 143.294C405.844 145.134 403.96 152.82 402.723 155.706C398.387 165.806 393.78 177.085 384.641 183.851C379.171 187.899 360.109 194.436 364.892 182.08C368.969 171.538 382.479 162.204 390.626 154.557C394.402 151.011 403.366 143.733 405.332 138.589C406.83 134.666 403.226 125.438 396.755 127.522C393.818 128.468 393.438 137.053 392.364 139.498C390.665 143.357 387.666 146.382 385.015 149.59C380.813 154.678 376.37 162.136 369.778 164.532C361.852 167.418 359.403 162.776 363.478 155.659C367.464 148.703 376.47 144.225 381.979 138.515C384.72 135.673 393.353 127.361 391.257 123.112C386.692 113.86 380.317 127.394 378.048 130.145C376.27 132.297 365.481 146.187 362.114 143.533C358.067 140.346 367.13 127.505 368.799 124.762C372.319 118.973 373.858 119.297 369.401 116.205C366.855 114.436 361.549 112.919 358.735 113.319C351.828 114.299 344.762 120.673 337.641 122.363C334.694 123.064 324.654 122.907 323.438 127.42C321.564 134.365 351.767 151.01 335.854 154.799C323.554 157.721 311.991 138.675 301.881 146.51C285.903 158.898 311.275 166.435 321.022 169.003C325.392 170.156 339.783 170.656 337.681 178.384C335.97 184.667 324.038 183.281 319.438 182.509C310.723 181.051 302.834 176.831 294.685 173.696C292.487 172.853 283.649 168.058 280.998 169.09C277.202 170.575 272.602 185.399 274.813 188.894C277.539 193.197 292.518 191.696 297.582 191.806C306.14 191.988 316.634 191.679 323.926 197.009C331.978 202.893 322.025 203.811 316.525 203.573C304.657 203.057 292.543 198.86 280.914 196.585C276.858 195.789 270.819 193.628 266.788 194.182C260.685 195.025 261.971 195.448 264.48 200.432C270.076 211.555 275.758 212.807 288.138 213.67C293.785 214.061 318.492 210.811 320.435 218.346C314.365 223.124 299.64 220.511 292.476 220.41C287.234 220.333 278.737 221.542 274.18 219.008C267.975 215.55 260.128 202.657 255.578 197.482C247.509 188.303 239.566 179.17 230.734 170.687C240.371 172.055 249.396 175.109 259.159 172.697C269.831 170.058 280.06 162.928 281.636 151.457C282.212 147.259 281.513 142.951 281.213 138.765C281.115 137.428 281.18 136.054 281.02 134.72C280.321 128.922 280.804 127.033 276.82 131.23C272.288 136.005 269.14 146.876 261.347 148.897C252.717 151.137 257.345 144.671 260.853 140.895C269.516 131.569 278.992 123.457 280.426 109.65C281.208 102.12 280.77 93.8565 279.409 86.3468C278.1 79.1293 276.797 79.3486 274.357 85.2616C269.062 98.0868 260.807 108.652 249.833 117.229C247.73 118.874 243.013 122.899 239.838 120.62C236.964 118.561 239.052 114.664 239.834 111.718C241.556 105.211 244.038 99.1786 246.483 92.9237C249.703 84.6841 255.306 73.5681 255.534 64.6935C255.684 58.9309 251.015 56.4562 246.891 52.845C242.069 48.6201 237.743 44.1193 234.003 38.8992C231.396 35.2628 228.587 29.8074 224.662 27.4181C218.569 23.7074 219.934 28.3368 220.394 32.9672C220.762 36.666 226.111 73.1967 217.444 71.3195C208.843 69.4594 212.464 35.0784 211.271 27.5315C209.688 17.5335 195.804 18.8913 187.403 17.0655C182.973 16.1002 178.913 15.5954 174.711 13.9613C173.121 13.3427 171.316 10.645 169.529 11.4581C165.469 13.3013 181.84 28.3373 177.586 33.6661C170.404 42.6626 163.158 18.9033 161.102 14.5696C159.374 10.9245 157.31 6.65554 154.888 3.48721C151.144 -1.40552 150.638 -0.224361 145.128 1.41567C139.617 3.0557 126.457 2.91483 122.295 6.55806C118.272 10.0821 123.406 12.6668 126.194 15.8711C128.835 18.9033 137.393 29.1925 130.18 31.3247C127.575 32.0951 118.122 24.4025 115.674 22.8209C110.476 19.4605 111.597 20.2261 107.233 21.3279C102.162 22.6051 96.4539 24.2452 91.5756 25.9726C85.4576 28.1403 84.0006 29.1692 88.5858 33.5523C93.9632 38.6872 102.014 41.78 104.662 49.1268C105.95 52.2998 105.102 55.8485 101.095 55.9119C96.8196 55.9812 94.8744 50.1455 93.2293 47.0181C91.1447 43.0597 87.2328 33.7497 82.1594 32.9186C78.9883 32.3989 75.0765 36.228 72.3939 37.6181C70.8056 38.44 63.6548 40.5746 63.0787 42.7806C62.4474 45.2033 70.6954 50.455 72.9318 53.0381C78.638 59.6281 84.7017 67.7699 86.86 75.7012C88.5262 88.6489 73.5345 72.916 71.1713 68.9892C68.5493 64.635 60.135 42.1235 52.6025 44.4034C50.5514 45.0247 49.2844 50.0228 47.606 51.6586C45.5496 53.6623 42.9098 54.4683 40.4415 55.7123C36.7822 57.5578 33.12 59.4022 29.6132 61.4883C28.5295 62.1324 25.583 64.0055 24.9959 64.4302C24.5539 64.7518 23.5757 64.5401 23.0386 64.9439C19.37 67.7064 17.6577 73.2941 14.3117 76.6531C12.8102 78.1607 6.13529 82.2764 6.62629 84.4116C7.07339 86.3576 38.8502 87.8839 43.6108 88.4117C47.2308 88.8122 62.4321 88.1779 64.2886 91.7149C66.1035 95.1749 63.0312 96.3929 60.0416 97.5385C52.6226 100.382 43.2738 101.055 35.466 102.452C29.9504 103.438 7.36172 104.843 4.43544 110.324C1.41451 115.985 5.08794 119.86 9.30322 120.636C13.9175 121.49 20.5818 119.542 25.0916 118.891C28.7647 118.361 52.2119 112.551 53.4174 117.957C54.7275 123.839 26.6967 128.773 23.9215 129.52C18.6182 130.947 9.6691 131.202 4.98929 133.927C0.795389 136.373 2.36173 136.658 3.52709 140.675C7.55187 154.557 8.98157 151.843 21.2555 148.724C25.9543 147.529 31.9893 145.394 36.4726 147.97C41.8294 151.042 41.5385 154.891 36.7477 157.542C33.456 159.366 26.5849 159.796 22.8986 160.334C18.5898 160.964 14.2237 161.183 9.87366 161.231C8.59509 161.246 3.00043 160.317 1.7821 161.14C-3.00428 164.37 8.57294 181.194 13.5704 181.85C15.9962 182.169 19.9379 180.514 22.3457 180.048C30.7607 178.409 39.3191 177.541 47.7657 175.983C52.5222 175.107 74.7912 168.595 70.8014 180.129C68.5959 186.501 52.487 189.714 47.1439 191.534C42.0029 193.286 36.8483 194.848 31.5988 196.24C26.6944 197.54 23.8378 197.006 27.1043 202.434C30.4295 207.957 50.2332 224.807 56.451 224.273C61.5524 223.832 59.6567 221.473 65.3809 224.877C67.4817 226.13 69.6126 228.191 71.4347 229.812C78.4337 236.027 85.6286 244.993 95.4003 246.732C116.287 250.451 144.81 222.505 158.295 209.525C160.975 206.947 171.215 194.298 176.199 197.125C181.437 200.093 172.35 211.904 170.545 214.17C160.487 226.811 147.953 238.943 133.06 245.519C129.093 247.269 117.979 248.948 114.22 252.041C110.492 255.105 114.306 256.092 118.263 258.699C126.703 264.253 137.985 272.445 148.358 269.042C162.015 264.559 169.344 250.234 176.981 238.99C181.218 232.755 201.069 203.3 201.332 226.397C201.459 237.895 194.173 251.057 186.336 258.964C184.871 260.44 175.397 265.161 175.596 266.284C175.899 267.988 181.578 268.719 182.615 268.942C192.667 271.104 222.859 274.05 227.092 261.107C229.997 252.227 226.458 238.038 225.21 229.108C224.82 226.334 222.878 221.877 226.865 220.994C231.971 219.863 236.348 237.703 236.731 240.53C237.518 246.342 236.642 252.399 234.439 258.395C233.471 261.029 230.817 263.382 234.279 263.794C235.534 263.942 242.556 257.258 243.657 256.142C249.257 250.442 249.637 244.021 249.179 236.465C247.935 216.072 238.449 196.19 227.415 179.23C240.608 192.914 253.196 207.082 265.377 221.678C268.421 225.325 270.561 229.786 273.564 233.306C277.897 238.38 283.231 242.507 287.739 247.925C286.412 247.791 274.919 244.695 274.586 247.826C274.284 250.675 284.031 255.088 286.028 256.143C295.016 260.903 298.554 261.319 305.62 269.939C323.204 291.395 339.27 313.639 355.007 336.461C362.698 347.615 370.798 358.605 377.57 370.353C380.968 376.245 383.694 382.535 386.278 388.818C388.055 393.139 390.287 406.183 395.825 407.568C402.263 409.18 400.686 402.094 399.378 398.754C396.429 391.227 394.285 383.898 392.186 376.041C388.773 363.262 386.203 350.275 382.473 337.569C377.818 321.713 373.984 305.727 370.145 289.662C367.653 279.235 365.512 268.633 363.908 258.028C362.807 250.745 363.083 242.945 361.129 235.808C368.738 242.665 367.257 255.054 379.962 255.94C389.781 256.626 396.876 248.701 402.493 241.708C407.073 236.005 413.657 227.385 414.546 219.893C415.606 210.952 408.113 217.347 402.529 219.284C398.925 220.536 388.989 226.252 386.024 222.839C381.877 218.063 396.677 211.856 399.538 210.037C405.832 206.041 412.811 201.185 417.605 195.328C419.498 193.013 427.341 167.876 418.639 171.291C417.535 171.724 415.998 175.238 415.107 176.473C410.976 182.204 406.284 187.374 401.22 192.286C395.7 197.636 383.65 210.229 374.447 207.503C378.177 196.209 393.795 190.321 402.237 182.916C407.663 178.16 412.36 172.905 415.586 166.385C417.189 163.141 421.266 154.055 419.311 150.607Z" fill="#02362C"/>
</svg>
