<svg width="314" height="287" viewBox="0 0 314 287" fill="none" xmlns="http://www.w3.org/2000/svg">
<path fill-rule="evenodd" clip-rule="evenodd" d="M236.619 136.652C239.33 136.628 242.109 139.325 244.062 140.911C238.98 137.512 230.93 137.634 225.102 136.816C219.431 136.019 213.8 134.821 208.326 133.101C208.206 133.066 196.066 129.09 200.177 126.808C211.549 120.429 225.632 137.216 236.619 136.652V136.652ZM157.712 84.3286C159.849 89.5697 169.312 115.235 160.115 117.067C152.796 118.525 146.517 102.907 146.123 97.6872C145.474 88.997 145.871 80.3254 144.659 71.6469C149.754 75.5528 155.173 78.037 157.712 84.3286V84.3286ZM68.335 243.059C64.8256 247.393 61.2786 251.725 57.4609 255.791C61.4712 250.822 65.2964 245.827 69.8053 241.293L68.334 243.059L68.335 243.059ZM304.173 42.9014C302.248 40.4192 294.728 43.4516 292.575 43.9386C286.669 45.2711 280.278 46.4557 274.879 44.1191C270.249 42.9552 277.745 34.9248 278.918 31.8528C279.741 29.699 281.457 24.2386 280.031 22.0427C276.974 17.3386 270.576 22.8522 267.39 25.0251C262.724 28.2087 260.794 30.2698 261.601 24.4266C262.469 18.1456 269.053 7.56619 262.393 2.00219C256.719 -2.73617 247.902 6.26125 244.475 9.87594C238.011 16.6827 235.011 24.3826 233.632 33.5474C233.31 35.6841 230.836 48.3193 228.664 46.0931C224.331 40.5244 227.761 32.3485 224.339 26.3476C222.394 22.9373 219.716 21.2467 218.081 17.4095C216.466 13.6211 214.835 6.82923 209.613 6.41794C206.298 6.15817 204.108 8.90075 203.561 11.6351C201.824 18.0469 203.131 23.82 203.018 30.3132C202.935 35.0645 199.812 38.6368 200.973 43.5253C202.844 50.9766 205.286 58.791 206.549 66.5507C206.945 68.9828 208.288 80.0556 203.525 77.8907C200.843 76.6719 201.121 66.3107 200.938 64.4899C200.5 60.1391 200.565 55.797 197.946 52.0283C196.445 49.8678 193.955 49.0363 192.796 47.3404C189.373 42.3258 189.604 33.8256 186.778 28.3177C184.24 23.3755 177.52 11.3949 171.619 10.2228C163.54 8.6172 166.579 19.6155 167.106 24.4389C167.691 29.7789 168.589 34.6494 168.115 39.8595C167.7 44.4591 168.029 48.1867 169.793 52.6548C173.05 60.9099 177.958 68.0297 182.076 75.5506C182.068 75.522 182.058 75.494 182.046 75.4667C184.357 79.8816 186.282 85.3553 186.066 90.4601C185.704 99.0177 182.742 94.6605 180.142 88.8367C176.219 80.0569 173.662 70.6683 169.786 61.8898C168.405 58.7627 166.75 55.5888 163.87 53.5502C161.939 52.1828 159.549 52.5145 158.049 51.6864C152.832 48.8128 133.622 16.252 125.556 25.9579C121.2 31.1985 132.014 42.4016 134.295 46.3217C137.936 52.5827 141.8 56.9027 141.431 64.3339C139.313 62.367 136.402 63.3923 134.466 61.83C132.166 59.9711 131.521 56.0284 130.444 53.4503C127.482 46.3624 123.997 39.3833 119.364 33.2682C105.225 14.6099 107.604 42.8163 109.004 52.1315C109.273 53.9184 109.587 56.2006 109.866 58.2352C110.588 63.5714 109.347 64.4379 108.584 69.1548C107.287 77.1804 116.748 87.768 121.637 93.5173C123.144 95.2933 146.394 124.103 136.201 123.861C131.061 123.74 122.397 109.128 119.998 104.642C116.31 97.7439 113.777 83.9619 106.119 80.3838C103.713 79.26 101.726 80.4416 99.4972 79.555C94.2896 77.49 90.7562 69.3373 86.9897 65.5221C79.3238 57.7579 69.9049 58.8368 76.3182 71.4334C78.8575 76.4176 80.1171 79.7439 81.6765 85.1687C83.4563 91.3571 89.0441 94.5458 91.616 99.9672C93.7409 104.448 90.4339 102.051 90.6255 107.384C90.7863 111.812 97.6546 116.657 100.887 119.12C105.377 122.542 125.617 134.008 121.649 140.926C118.032 147.232 106.232 137.724 103.078 134.832C95.1855 127.598 92.038 117.833 87.5987 108.464C85.4351 103.897 82.9588 98.3539 79.4179 94.6571C76.3131 91.4183 72.7797 90.9749 68.9325 89.3009C64.4527 87.353 44.7076 76.9655 45.6178 89.5186C46.2293 97.9525 57.9794 102.036 59.4483 110.087C54.1629 107.733 43.1 97.0264 36.8021 102.654C30.7225 108.089 42.7863 119.818 46.4609 124.252C48.7161 126.971 64.1551 139.206 63.8952 143.792C63.6228 148.579 58.0824 146.864 54.8812 146.229C49.4061 145.145 0.37921 133.076 0.597183 143.068C0.763738 150.816 19.616 148.194 22.0516 152.588C22.9472 154.202 20.998 154.989 20.6529 156.713C19.3905 163.029 21.4841 165.553 28.1169 166.245C21.8179 181.342 42.6725 173.332 49.6833 170.924C54.459 169.283 74.7789 161.853 76.1855 172.048C76.6586 175.476 70.9195 180.875 69.9415 184.229C68.0568 190.698 72.808 194.668 79.0489 192.48C83.3431 190.976 87.2435 187.175 89.9984 183.652C91.5822 181.631 94.3799 174.978 97.0214 174.517C96.7581 185.468 103.145 179.806 108.972 175.1C113.33 171.581 124.185 162.012 130.663 165.818C125.591 172.856 118.661 178.461 113.122 185.107C107.059 192.388 100.749 199.187 93.7556 206.067C80.4932 219.114 67.2002 233.334 55.5316 247.755C49.8237 254.808 43.6429 261.529 37.5245 268.227C35.3158 270.642 21.4515 281.477 26.31 285.88C32.8824 291.833 44.2908 269.319 48.9823 266.713C71.2841 241.347 95.0518 217.263 116.669 191.409C115.779 194.325 116.754 202.551 121.163 202.41C120.124 204.807 117.007 208.46 117.731 211.205C119.337 217.275 121.794 211.806 124.071 212.161C127.963 212.771 124.768 219.788 124.048 222.648C120.687 235.974 120.056 250.535 119.19 264.243C118.716 271.765 125.039 292.585 135.718 283.674C141.05 279.227 141.601 268.093 141.94 261.86C142.155 257.927 140.36 247.01 143.088 243.608C147.605 245.995 153.024 256.735 155.924 260.581C162.054 268.716 167.418 273.887 178.069 274.583C203.374 276.236 172.729 247.495 175.783 245.57C177.932 244.217 192.748 256.715 194.708 258.208C199.051 261.516 212.282 269.587 217.139 262.817C221.213 257.138 210.793 247.631 207.701 243.973C205.107 240.905 203.171 236.706 199.925 233.617C197.254 231.075 193.677 229.628 191.032 227.208C188.282 224.692 188.122 221.07 185.056 218.191C181.616 214.957 176.938 212.256 173.151 209.311C166.821 204.391 157.865 197.996 157.123 189.068C171.583 190.863 181.457 206.605 191.33 215.753C196.268 220.328 202.082 226.197 209.233 224.639C212.105 224.013 209.03 223.454 212.875 223.188C213.738 223.128 214.907 223.634 215.742 223.829C221.737 225.24 227.479 227.426 233.423 228.99C237.11 229.961 248.938 234.277 252.244 230.73C258.237 224.296 232.361 208.132 227.787 204.548C224.326 201.839 220.163 199.522 216.896 196.709C213.898 194.128 212.891 190.684 208.859 188.784C203.639 186.323 197.57 185.478 192.128 183.63C184.808 181.145 178.714 177.5 172.621 172.815C170.097 170.875 163.971 166.699 165.296 163.188C167.427 157.548 177.035 164.755 179.757 166.299C187.818 170.875 195.361 178.168 205.329 181.177C215.64 184.292 220.936 194.424 230.43 198.96C233.86 200.598 235.79 200.754 239.406 200.087C243.43 199.35 245.337 198.882 250.064 200.085C254.348 201.175 275.019 207.891 273.446 198.249C272.937 195.121 268.403 193.83 266.105 192.552C261.041 189.732 256.125 186.623 250.993 183.929C247.736 182.218 243.595 181.037 240.928 178.383C238.398 175.865 237.833 173.304 234.194 171.665C229.295 169.456 221.928 169.813 217.638 166.826C213.545 163.981 210.31 159.892 205.624 157.264C201.895 155.176 180.765 147.353 181.343 143.861C182.515 136.762 206.311 150.33 208.143 151.325C219.823 157.672 231.277 166.136 243.266 172.113C247.296 174.121 250.423 173.374 254.136 173.919C259.067 174.643 264.219 178.03 269.227 179.203C273.218 180.138 283.657 182.58 281.62 175.63C280.15 170.607 270.6 166.278 266.607 163.238C262.092 159.804 257.888 156.086 252.998 153.181C251.946 152.554 249.629 151.764 248.857 150.9C246.727 148.503 248.138 144.852 245.575 142.155C248.266 144.741 250.92 146.083 254.572 146.119C255.525 146.131 257.361 145.109 258.558 144.96C262.169 144.509 266.422 145.719 270.038 146.129C275.118 146.699 300.716 145.97 287.53 136.996C281.894 133.161 275.556 130.252 269.279 127.68C264.348 125.658 257.89 124.173 253.734 120.779C249.427 117.258 248.637 115.442 242.376 114.511C235.942 113.556 226.864 113.745 221.805 109.103C211.501 99.6444 245.819 105.994 249.468 106.915C256.84 108.777 264.81 110.237 272.347 108.571C280.751 106.715 287.712 102.73 296.551 102.327C300.492 102.149 313.406 102.554 313.18 96.2208C312.959 89.985 298.516 89.5707 294.683 88.8024C290.724 88.0093 286.224 87.7389 282.419 86.5795C278.966 85.5249 276.33 83.2973 272.964 81.9982C263.425 78.3107 255.319 83.0146 245.807 82.573C240.785 82.3395 238.391 80.3641 243.64 76.7775C246.472 74.8384 251.021 74.6576 254.359 73.7188C259.382 72.3085 264.326 70.5099 269.284 68.8808C275.974 66.6794 313.54 54.8995 304.173 42.9014" fill="#89B99A"/>
</svg>
